<mxfile host="app.diagrams.net" modified="2021-10-29T15:34:57.633Z" agent="5.0 (Windows NT 10.0; Win64; x64) AppleWebKit/537.36 (KHTML, like Gecko) Chrome/95.0.4638.54 Safari/537.36 Edg/95.0.1020.30" etag="hgHTd6g8Lw4pVmruE-es" version="15.4.3" type="github" pages="7">
  <diagram id="W_tM0bPRY71zsKmWH91Z" name="system model">
    <mxGraphModel dx="744" dy="422" grid="1" gridSize="10" guides="1" tooltips="1" connect="1" arrows="1" fold="1" page="1" pageScale="1" pageWidth="1169" pageHeight="827" math="1" shadow="0">
      <root>
        <mxCell id="YHxpn7fVNoL1hLX0lPf7-0" />
        <mxCell id="YHxpn7fVNoL1hLX0lPf7-1" parent="YHxpn7fVNoL1hLX0lPf7-0" />
        <mxCell id="YHxpn7fVNoL1hLX0lPf7-2" value="" style="rounded=1;whiteSpace=wrap;html=1;" parent="YHxpn7fVNoL1hLX0lPf7-1" vertex="1">
          <mxGeometry x="620" y="260" width="390" height="140" as="geometry" />
        </mxCell>
        <mxCell id="YHxpn7fVNoL1hLX0lPf7-3" value="" style="ellipse;whiteSpace=wrap;html=1;fillColor=none;" parent="YHxpn7fVNoL1hLX0lPf7-1" vertex="1">
          <mxGeometry x="280" y="240" width="280" height="280" as="geometry" />
        </mxCell>
        <mxCell id="YHxpn7fVNoL1hLX0lPf7-4" value="" style="ellipse;whiteSpace=wrap;html=1;fillColor=none;dashed=1;" parent="YHxpn7fVNoL1hLX0lPf7-1" vertex="1">
          <mxGeometry x="280" y="338.75" width="280" height="82.5" as="geometry" />
        </mxCell>
        <mxCell id="YHxpn7fVNoL1hLX0lPf7-5" value="" style="endArrow=none;html=1;entryX=0.055;entryY=0.273;entryDx=0;entryDy=0;entryPerimeter=0;" parent="YHxpn7fVNoL1hLX0lPf7-1" source="YHxpn7fVNoL1hLX0lPf7-8" target="YHxpn7fVNoL1hLX0lPf7-3" edge="1">
          <mxGeometry width="50" height="50" relative="1" as="geometry">
            <mxPoint x="415.046762718526" y="377.4770524755172" as="sourcePoint" />
            <mxPoint x="480" y="380" as="targetPoint" />
          </mxGeometry>
        </mxCell>
        <mxCell id="YHxpn7fVNoL1hLX0lPf7-6" value="" style="endArrow=none;html=1;entryX=0.399;entryY=0.01;entryDx=0;entryDy=0;entryPerimeter=0;" parent="YHxpn7fVNoL1hLX0lPf7-1" source="YHxpn7fVNoL1hLX0lPf7-8" target="YHxpn7fVNoL1hLX0lPf7-3" edge="1">
          <mxGeometry width="50" height="50" relative="1" as="geometry">
            <mxPoint x="418.8778425494843" y="374.55452095463806" as="sourcePoint" />
            <mxPoint x="350" y="310" as="targetPoint" />
          </mxGeometry>
        </mxCell>
        <mxCell id="YHxpn7fVNoL1hLX0lPf7-7" value="" style="ellipse;whiteSpace=wrap;html=1;fillColor=#97D077;" parent="YHxpn7fVNoL1hLX0lPf7-1" vertex="1">
          <mxGeometry x="380" y="290" width="13" height="13" as="geometry" />
        </mxCell>
        <mxCell id="YHxpn7fVNoL1hLX0lPf7-8" value="" style="ellipse;whiteSpace=wrap;html=1;fillColor=#000000;" parent="YHxpn7fVNoL1hLX0lPf7-1" vertex="1">
          <mxGeometry x="413.5" y="373.5" width="13" height="13" as="geometry" />
        </mxCell>
        <mxCell id="YHxpn7fVNoL1hLX0lPf7-9" value="" style="endArrow=none;html=1;entryX=0.055;entryY=0.273;entryDx=0;entryDy=0;entryPerimeter=0;" parent="YHxpn7fVNoL1hLX0lPf7-1" target="YHxpn7fVNoL1hLX0lPf7-8" edge="1">
          <mxGeometry width="50" height="50" relative="1" as="geometry">
            <mxPoint x="415.0467627185262" y="377.4770524755172" as="sourcePoint" />
            <mxPoint x="295.39999999999986" y="316.43999999999994" as="targetPoint" />
          </mxGeometry>
        </mxCell>
        <mxCell id="YHxpn7fVNoL1hLX0lPf7-10" value="" style="ellipse;whiteSpace=wrap;html=1;fillColor=#97D077;" parent="YHxpn7fVNoL1hLX0lPf7-1" vertex="1">
          <mxGeometry x="340" y="310" width="13" height="13" as="geometry" />
        </mxCell>
        <mxCell id="YHxpn7fVNoL1hLX0lPf7-11" value="" style="ellipse;whiteSpace=wrap;html=1;fillColor=#B3B3B3;" parent="YHxpn7fVNoL1hLX0lPf7-1" vertex="1">
          <mxGeometry x="490" y="430" width="13" height="13" as="geometry" />
        </mxCell>
        <mxCell id="YHxpn7fVNoL1hLX0lPf7-12" value="" style="ellipse;whiteSpace=wrap;html=1;fillColor=#B3B3B3;" parent="YHxpn7fVNoL1hLX0lPf7-1" vertex="1">
          <mxGeometry x="402" y="405" width="13" height="13" as="geometry" />
        </mxCell>
        <mxCell id="YHxpn7fVNoL1hLX0lPf7-13" value="" style="ellipse;whiteSpace=wrap;html=1;fillColor=#B3B3B3;" parent="YHxpn7fVNoL1hLX0lPf7-1" vertex="1">
          <mxGeometry x="353" y="460" width="13" height="13" as="geometry" />
        </mxCell>
        <mxCell id="YHxpn7fVNoL1hLX0lPf7-14" value="" style="ellipse;whiteSpace=wrap;html=1;fillColor=#B3B3B3;" parent="YHxpn7fVNoL1hLX0lPf7-1" vertex="1">
          <mxGeometry x="503" y="356" width="13" height="13" as="geometry" />
        </mxCell>
        <mxCell id="YHxpn7fVNoL1hLX0lPf7-15" value="" style="ellipse;whiteSpace=wrap;html=1;fillColor=#B3B3B3;" parent="YHxpn7fVNoL1hLX0lPf7-1" vertex="1">
          <mxGeometry x="440" y="473" width="13" height="13" as="geometry" />
        </mxCell>
        <mxCell id="YHxpn7fVNoL1hLX0lPf7-16" value="" style="ellipse;whiteSpace=wrap;html=1;fillColor=#B3B3B3;" parent="YHxpn7fVNoL1hLX0lPf7-1" vertex="1">
          <mxGeometry x="310" y="380" width="13" height="13" as="geometry" />
        </mxCell>
        <mxCell id="YHxpn7fVNoL1hLX0lPf7-17" value="" style="endArrow=none;html=1;edgeStyle=orthogonalEdgeStyle;curved=1;" parent="YHxpn7fVNoL1hLX0lPf7-1" edge="1">
          <mxGeometry width="50" height="50" relative="1" as="geometry">
            <mxPoint x="400" y="370" as="sourcePoint" />
            <mxPoint x="416" y="360" as="targetPoint" />
            <Array as="points">
              <mxPoint x="400" y="360" />
            </Array>
          </mxGeometry>
        </mxCell>
        <mxCell id="YHxpn7fVNoL1hLX0lPf7-18" value="\(\theta\)" style="text;html=1;align=center;verticalAlign=middle;resizable=0;points=[];autosize=1;fontSize=17;" parent="YHxpn7fVNoL1hLX0lPf7-1" vertex="1">
          <mxGeometry x="360" y="339" width="80" height="30" as="geometry" />
        </mxCell>
        <mxCell id="YHxpn7fVNoL1hLX0lPf7-19" value="\(R_{GW}\)" style="text;html=1;align=center;verticalAlign=middle;resizable=0;points=[];autosize=1;fontSize=17;" parent="YHxpn7fVNoL1hLX0lPf7-1" vertex="1">
          <mxGeometry x="378" y="281.5" width="100" height="30" as="geometry" />
        </mxCell>
        <mxCell id="YHxpn7fVNoL1hLX0lPf7-20" value="" style="ellipse;whiteSpace=wrap;html=1;fillColor=#B3B3B3;" parent="YHxpn7fVNoL1hLX0lPf7-1" vertex="1">
          <mxGeometry x="477" y="281.5" width="13" height="13" as="geometry" />
        </mxCell>
        <mxCell id="YHxpn7fVNoL1hLX0lPf7-21" value="Шлюз" style="text;html=1;align=left;verticalAlign=middle;resizable=0;points=[];autosize=1;fontSize=20;fontFamily=Computer Modern;" parent="YHxpn7fVNoL1hLX0lPf7-1" vertex="1">
          <mxGeometry x="700" y="274.5" width="70" height="30" as="geometry" />
        </mxCell>
        <mxCell id="YHxpn7fVNoL1hLX0lPf7-22" value="" style="ellipse;whiteSpace=wrap;html=1;fillColor=#000000;" parent="YHxpn7fVNoL1hLX0lPf7-1" vertex="1">
          <mxGeometry x="660" y="283" width="13" height="13" as="geometry" />
        </mxCell>
        <mxCell id="YHxpn7fVNoL1hLX0lPf7-23" value="Узлы в области передачи данных" style="text;html=1;align=left;verticalAlign=middle;resizable=0;points=[];autosize=1;fontSize=20;fontFamily=Computer Modern;" parent="YHxpn7fVNoL1hLX0lPf7-1" vertex="1">
          <mxGeometry x="700" y="315" width="300" height="30" as="geometry" />
        </mxCell>
        <mxCell id="YHxpn7fVNoL1hLX0lPf7-24" value="&lt;font face=&quot;Computer Modern&quot;&gt;&lt;span style=&quot;font-size: 20px&quot;&gt;Узлы вне области передачи данных&lt;/span&gt;&lt;/font&gt;" style="text;html=1;align=left;verticalAlign=middle;resizable=0;points=[];autosize=1;fontSize=14;" parent="YHxpn7fVNoL1hLX0lPf7-1" vertex="1">
          <mxGeometry x="700" y="360" width="320" height="20" as="geometry" />
        </mxCell>
        <mxCell id="YHxpn7fVNoL1hLX0lPf7-25" value="" style="ellipse;whiteSpace=wrap;html=1;fillColor=#B3B3B3;" parent="YHxpn7fVNoL1hLX0lPf7-1" vertex="1">
          <mxGeometry x="660" y="363.5" width="13" height="13" as="geometry" />
        </mxCell>
        <mxCell id="YHxpn7fVNoL1hLX0lPf7-26" value="" style="ellipse;whiteSpace=wrap;html=1;fillColor=#97D077;" parent="YHxpn7fVNoL1hLX0lPf7-1" vertex="1">
          <mxGeometry x="660" y="323.5" width="13" height="13" as="geometry" />
        </mxCell>
      </root>
    </mxGraphModel>
  </diagram>
  <diagram id="b1d_vepGFz7S4lKjsOep" name="data transmission">
    <mxGraphModel dx="744" dy="422" grid="1" gridSize="10" guides="1" tooltips="1" connect="1" arrows="1" fold="1" page="1" pageScale="1" pageWidth="1169" pageHeight="827" math="1" shadow="0">
      <root>
        <mxCell id="0" />
        <mxCell id="1" parent="0" />
        <mxCell id="M1T9L96vetbOVjzSAr0i-4" value="&lt;font style=&quot;font-size: 18px&quot;&gt;\(\tau_{bo_1}\)&lt;/font&gt;" style="text;html=1;align=center;verticalAlign=middle;resizable=0;points=[];autosize=1;fontSize=24;fontFamily=Computer Modern;" parent="1" vertex="1">
          <mxGeometry x="155" y="200" width="130" height="40" as="geometry" />
        </mxCell>
        <mxCell id="M1T9L96vetbOVjzSAr0i-5" value="&lt;font style=&quot;font-size: 18px&quot;&gt;\(\tau_{bo_{(N+1)}}\)&lt;/font&gt;" style="text;html=1;align=center;verticalAlign=middle;resizable=0;points=[];autosize=1;fontSize=24;fontFamily=Computer Modern;" parent="1" vertex="1">
          <mxGeometry x="700" y="374" width="180" height="40" as="geometry" />
        </mxCell>
        <mxCell id="M1T9L96vetbOVjzSAr0i-8" value="&lt;font style=&quot;font-size: 18px&quot;&gt;\(\tau_{p_2}\)&lt;/font&gt;" style="text;html=1;align=center;verticalAlign=middle;resizable=0;points=[];autosize=1;fontSize=24;fontFamily=Computer Modern;" parent="1" vertex="1">
          <mxGeometry x="98" y="375" width="120" height="40" as="geometry" />
        </mxCell>
        <mxCell id="M1T9L96vetbOVjzSAr0i-10" value="&lt;font style=&quot;font-size: 18px&quot;&gt;\(\tau_{p_1}\)&lt;/font&gt;" style="text;html=1;align=center;verticalAlign=middle;resizable=0;points=[];autosize=1;fontSize=24;fontFamily=Computer Modern;" parent="1" vertex="1">
          <mxGeometry x="91" y="200" width="120" height="40" as="geometry" />
        </mxCell>
        <mxCell id="M1T9L96vetbOVjzSAr0i-12" value="" style="endArrow=classic;html=1;fontFamily=Computer Modern;fontSize=20;" parent="1" edge="1">
          <mxGeometry width="50" height="50" relative="1" as="geometry">
            <mxPoint x="120" y="140" as="sourcePoint" />
            <mxPoint x="990" y="140" as="targetPoint" />
          </mxGeometry>
        </mxCell>
        <mxCell id="M1T9L96vetbOVjzSAr0i-13" value="" style="endArrow=classic;html=1;fontFamily=Computer Modern;fontSize=20;" parent="1" edge="1">
          <mxGeometry width="50" height="50" relative="1" as="geometry">
            <mxPoint x="120" y="320" as="sourcePoint" />
            <mxPoint x="1000" y="320" as="targetPoint" />
          </mxGeometry>
        </mxCell>
        <mxCell id="M1T9L96vetbOVjzSAr0i-14" value="&lt;font style=&quot;font-size: 20px&quot;&gt;Шлюз&lt;/font&gt;" style="text;html=1;align=right;verticalAlign=middle;resizable=0;points=[];autosize=1;fontSize=22;fontFamily=Computer Modern;" parent="1" vertex="1">
          <mxGeometry x="50" y="100" width="70" height="30" as="geometry" />
        </mxCell>
        <mxCell id="M1T9L96vetbOVjzSAr0i-17" value="" style="endArrow=classic;startArrow=classic;html=1;fontFamily=Computer Modern;fontSize=20;" parent="1" edge="1">
          <mxGeometry width="50" height="50" relative="1" as="geometry">
            <mxPoint x="187" y="340" as="sourcePoint" />
            <mxPoint x="671" y="340" as="targetPoint" />
          </mxGeometry>
        </mxCell>
        <mxCell id="M1T9L96vetbOVjzSAr0i-18" value="&lt;font style=&quot;font-size: 18px&quot;&gt;Время успешной передачи&lt;/font&gt;" style="text;html=1;align=center;verticalAlign=middle;resizable=0;points=[];autosize=1;fontSize=20;fontFamily=Computer Modern;" parent="1" vertex="1">
          <mxGeometry x="316" y="335" width="220" height="30" as="geometry" />
        </mxCell>
        <mxCell id="M1T9L96vetbOVjzSAr0i-19" value="" style="endArrow=classic;html=1;fontFamily=Computer Modern;fontSize=20;" parent="1" edge="1">
          <mxGeometry width="50" height="50" relative="1" as="geometry">
            <mxPoint x="120" y="501" as="sourcePoint" />
            <mxPoint x="1010" y="501" as="targetPoint" />
          </mxGeometry>
        </mxCell>
        <mxCell id="M1T9L96vetbOVjzSAr0i-20" value="" style="endArrow=classic;startArrow=classic;html=1;fontFamily=Computer Modern;fontSize=20;" parent="1" edge="1">
          <mxGeometry width="50" height="50" relative="1" as="geometry">
            <mxPoint x="196" y="521" as="sourcePoint" />
            <mxPoint x="940" y="521" as="targetPoint" />
          </mxGeometry>
        </mxCell>
        <mxCell id="M1T9L96vetbOVjzSAr0i-21" value="&lt;font style=&quot;font-size: 18px&quot;&gt;Время безуспешной передачи&lt;/font&gt;" style="text;html=1;align=center;verticalAlign=middle;resizable=0;points=[];autosize=1;fontSize=20;fontFamily=Computer Modern;" parent="1" vertex="1">
          <mxGeometry x="492" y="521" width="240" height="30" as="geometry" />
        </mxCell>
        <mxCell id="M1T9L96vetbOVjzSAr0i-22" value="..." style="text;html=1;align=center;verticalAlign=middle;resizable=0;points=[];autosize=1;fontSize=20;fontFamily=Computer Modern;" parent="1" vertex="1">
          <mxGeometry x="743" y="438" width="30" height="30" as="geometry" />
        </mxCell>
        <mxCell id="M1T9L96vetbOVjzSAr0i-26" value="" style="endArrow=none;dashed=1;html=1;strokeWidth=1;fontFamily=Computer Modern;fontSize=20;exitX=0;exitY=1;exitDx=0;exitDy=0;" parent="1" edge="1">
          <mxGeometry width="50" height="50" relative="1" as="geometry">
            <mxPoint x="140" y="130" as="sourcePoint" />
            <mxPoint x="140" y="510" as="targetPoint" />
          </mxGeometry>
        </mxCell>
        <mxCell id="M1T9L96vetbOVjzSAr0i-27" value="" style="endArrow=none;dashed=1;html=1;strokeWidth=1;fontFamily=Computer Modern;fontSize=20;exitX=0;exitY=1;exitDx=0;exitDy=0;" parent="1" edge="1">
          <mxGeometry width="50" height="50" relative="1" as="geometry">
            <mxPoint x="170" y="234" as="sourcePoint" />
            <mxPoint x="170" y="274" as="targetPoint" />
          </mxGeometry>
        </mxCell>
        <mxCell id="M1T9L96vetbOVjzSAr0i-28" value="" style="endArrow=classic;startArrow=classic;html=1;fontFamily=Computer Modern;fontSize=20;" parent="1" edge="1">
          <mxGeometry width="50" height="50" relative="1" as="geometry">
            <mxPoint x="140" y="240.0000000000001" as="sourcePoint" />
            <mxPoint x="170" y="240.14" as="targetPoint" />
          </mxGeometry>
        </mxCell>
        <mxCell id="M1T9L96vetbOVjzSAr0i-30" value="" style="endArrow=none;dashed=1;html=1;strokeWidth=1;fontFamily=Computer Modern;fontSize=20;exitX=0;exitY=1;exitDx=0;exitDy=0;" parent="1" edge="1">
          <mxGeometry width="50" height="50" relative="1" as="geometry">
            <mxPoint x="186" y="310" as="sourcePoint" />
            <mxPoint x="186" y="350" as="targetPoint" />
            <Array as="points">
              <mxPoint x="186" y="350" />
            </Array>
          </mxGeometry>
        </mxCell>
        <mxCell id="M1T9L96vetbOVjzSAr0i-31" value="" style="endArrow=classic;startArrow=classic;html=1;dashed=1;strokeWidth=1;fontFamily=Computer Modern;fontSize=20;exitX=0.131;exitY=1.2;exitDx=0;exitDy=0;exitPerimeter=0;" parent="1" edge="1">
          <mxGeometry width="50" height="50" relative="1" as="geometry">
            <mxPoint x="200.00000000000003" y="240.86" as="sourcePoint" />
            <mxPoint x="249" y="240.5" as="targetPoint" />
          </mxGeometry>
        </mxCell>
        <mxCell id="M1T9L96vetbOVjzSAr0i-33" value="" style="endArrow=none;dashed=1;html=1;strokeWidth=1;fontFamily=Computer Modern;fontSize=20;" parent="1" edge="1">
          <mxGeometry width="50" height="50" relative="1" as="geometry">
            <mxPoint x="250" y="230" as="sourcePoint" />
            <mxPoint x="250" y="271" as="targetPoint" />
            <Array as="points">
              <mxPoint x="250" y="221" />
            </Array>
          </mxGeometry>
        </mxCell>
        <mxCell id="M1T9L96vetbOVjzSAr0i-35" value="" style="endArrow=none;dashed=1;html=1;strokeWidth=1;fontFamily=Computer Modern;fontSize=20;" parent="1" edge="1">
          <mxGeometry width="50" height="50" relative="1" as="geometry">
            <mxPoint x="201" y="230" as="sourcePoint" />
            <mxPoint x="201" y="275" as="targetPoint" />
          </mxGeometry>
        </mxCell>
        <mxCell id="M1T9L96vetbOVjzSAr0i-37" value="" style="endArrow=none;dashed=1;html=1;strokeWidth=1;fontFamily=Computer Modern;fontSize=20;exitX=0;exitY=1;exitDx=0;exitDy=0;" parent="1" edge="1">
          <mxGeometry width="50" height="50" relative="1" as="geometry">
            <mxPoint x="674" y="312" as="sourcePoint" />
            <mxPoint x="674" y="352" as="targetPoint" />
          </mxGeometry>
        </mxCell>
        <mxCell id="M1T9L96vetbOVjzSAr0i-39" value="" style="endArrow=classic;startArrow=classic;html=1;fontFamily=Computer Modern;fontSize=20;" parent="1" edge="1">
          <mxGeometry width="50" height="50" relative="1" as="geometry">
            <mxPoint x="140" y="413" as="sourcePoint" />
            <mxPoint x="180" y="413.1399999999999" as="targetPoint" />
          </mxGeometry>
        </mxCell>
        <mxCell id="M1T9L96vetbOVjzSAr0i-40" value="" style="endArrow=none;dashed=1;html=1;strokeWidth=1;fontFamily=Computer Modern;fontSize=20;exitX=0;exitY=1;exitDx=0;exitDy=0;" parent="1" edge="1">
          <mxGeometry width="50" height="50" relative="1" as="geometry">
            <mxPoint x="180" y="409" as="sourcePoint" />
            <mxPoint x="180" y="449" as="targetPoint" />
          </mxGeometry>
        </mxCell>
        <mxCell id="M1T9L96vetbOVjzSAr0i-44" value="&lt;font style=&quot;font-size: 18px&quot;&gt;\(\tau_{bo_1}\)&lt;/font&gt;" style="text;html=1;align=center;verticalAlign=middle;resizable=0;points=[];autosize=1;fontSize=24;fontFamily=Computer Modern;" parent="1" vertex="1">
          <mxGeometry x="173" y="377" width="130" height="40" as="geometry" />
        </mxCell>
        <mxCell id="M1T9L96vetbOVjzSAr0i-45" value="" style="endArrow=none;dashed=1;html=1;strokeWidth=1;fontFamily=Computer Modern;fontSize=20;" parent="1" edge="1">
          <mxGeometry width="50" height="50" relative="1" as="geometry">
            <mxPoint x="211" y="400" as="sourcePoint" />
            <mxPoint x="211" y="451" as="targetPoint" />
          </mxGeometry>
        </mxCell>
        <mxCell id="M1T9L96vetbOVjzSAr0i-48" value="" style="endArrow=classic;startArrow=classic;html=1;dashed=1;strokeWidth=1;fontFamily=Computer Modern;fontSize=20;" parent="1" edge="1">
          <mxGeometry width="50" height="50" relative="1" as="geometry">
            <mxPoint x="213" y="413" as="sourcePoint" />
            <mxPoint x="263" y="414" as="targetPoint" />
          </mxGeometry>
        </mxCell>
        <mxCell id="M1T9L96vetbOVjzSAr0i-51" value="&lt;font style=&quot;font-size: 18px&quot;&gt;Коллизия RTS-сообщений&lt;/font&gt;" style="text;html=1;align=center;verticalAlign=middle;resizable=0;points=[];autosize=1;fontSize=20;fontFamily=Computer Modern;" parent="1" vertex="1">
          <mxGeometry x="201" y="60" width="220" height="30" as="geometry" />
        </mxCell>
        <mxCell id="M1T9L96vetbOVjzSAr0i-57" value="&lt;font style=&quot;font-size: 18px&quot;&gt;\(\tau_{out}\)&lt;/font&gt;" style="text;html=1;align=center;verticalAlign=middle;resizable=0;points=[];autosize=1;fontSize=24;fontFamily=Computer Modern;" parent="1" vertex="1">
          <mxGeometry x="269" y="201.5" width="110" height="40" as="geometry" />
        </mxCell>
        <mxCell id="M1T9L96vetbOVjzSAr0i-60" value="" style="endArrow=classic;startArrow=classic;html=1;dashed=1;strokeWidth=1;fontFamily=Computer Modern;fontSize=20;" parent="1" edge="1">
          <mxGeometry width="50" height="50" relative="1" as="geometry">
            <mxPoint x="282" y="240" as="sourcePoint" />
            <mxPoint x="370" y="241" as="targetPoint" />
          </mxGeometry>
        </mxCell>
        <mxCell id="M1T9L96vetbOVjzSAr0i-61" value="" style="endArrow=classic;startArrow=classic;html=1;dashed=1;strokeWidth=1;fontFamily=Computer Modern;fontSize=20;" parent="1" edge="1">
          <mxGeometry width="50" height="50" relative="1" as="geometry">
            <mxPoint x="370" y="240.5" as="sourcePoint" />
            <mxPoint x="461" y="241" as="targetPoint" />
          </mxGeometry>
        </mxCell>
        <mxCell id="M1T9L96vetbOVjzSAr0i-63" value="&lt;font style=&quot;font-size: 18px&quot;&gt;\(\tau_{bo_2}\)&lt;/font&gt;" style="text;html=1;align=center;verticalAlign=middle;resizable=0;points=[];autosize=1;fontSize=24;fontFamily=Computer Modern;" parent="1" vertex="1">
          <mxGeometry x="347" y="201.5" width="130" height="40" as="geometry" />
        </mxCell>
        <mxCell id="M1T9L96vetbOVjzSAr0i-64" value="" style="endArrow=classic;startArrow=classic;html=1;dashed=1;strokeWidth=1;fontFamily=Computer Modern;fontSize=20;" parent="1" edge="1">
          <mxGeometry width="50" height="50" relative="1" as="geometry">
            <mxPoint x="761" y="414" as="sourcePoint" />
            <mxPoint x="813" y="414" as="targetPoint" />
          </mxGeometry>
        </mxCell>
        <mxCell id="M1T9L96vetbOVjzSAr0i-65" value="..." style="text;html=1;align=center;verticalAlign=middle;resizable=0;points=[];autosize=1;fontSize=20;fontFamily=Computer Modern;" parent="1" vertex="1">
          <mxGeometry x="783" y="451" width="30" height="30" as="geometry" />
        </mxCell>
        <mxCell id="M1T9L96vetbOVjzSAr0i-74" value="..." style="text;html=1;align=center;verticalAlign=middle;resizable=0;points=[];autosize=1;fontSize=20;fontFamily=Computer Modern;" parent="1" vertex="1">
          <mxGeometry x="706" y="216.5" width="30" height="30" as="geometry" />
        </mxCell>
        <mxCell id="M1T9L96vetbOVjzSAr0i-78" value="&lt;font style=&quot;font-size: 18px&quot;&gt;Коллизия rts-сообщений&lt;/font&gt;" style="text;html=1;align=center;verticalAlign=middle;resizable=0;points=[];autosize=1;fontSize=20;fontFamily=Computer Modern;" parent="1" vertex="1">
          <mxGeometry x="762" y="60" width="200" height="30" as="geometry" />
        </mxCell>
        <mxCell id="M1T9L96vetbOVjzSAr0i-79" value="..." style="text;html=1;align=center;verticalAlign=middle;resizable=0;points=[];autosize=1;fontSize=20;fontFamily=Computer Modern;" parent="1" vertex="1">
          <mxGeometry x="702" y="96" width="30" height="30" as="geometry" />
        </mxCell>
        <mxCell id="M1T9L96vetbOVjzSAr0i-80" value="" style="endArrow=none;dashed=1;html=1;strokeWidth=1;fontFamily=Computer Modern;fontSize=20;exitX=0;exitY=1;exitDx=0;exitDy=0;" parent="1" edge="1">
          <mxGeometry width="50" height="50" relative="1" as="geometry">
            <mxPoint x="197" y="494" as="sourcePoint" />
            <mxPoint x="197" y="534" as="targetPoint" />
          </mxGeometry>
        </mxCell>
        <mxCell id="M1T9L96vetbOVjzSAr0i-81" value="&lt;font style=&quot;font-size: 20px&quot;&gt;Узел 1&lt;/font&gt;" style="text;html=1;align=right;verticalAlign=middle;resizable=0;points=[];autosize=1;fontSize=22;fontFamily=Computer Modern;" parent="1" vertex="1">
          <mxGeometry x="50" y="280" width="70" height="30" as="geometry" />
        </mxCell>
        <mxCell id="M1T9L96vetbOVjzSAr0i-82" value="&lt;font style=&quot;font-size: 20px&quot;&gt;Узел 2&lt;/font&gt;" style="text;html=1;align=right;verticalAlign=middle;resizable=0;points=[];autosize=1;fontSize=22;fontFamily=Computer Modern;" parent="1" vertex="1">
          <mxGeometry x="50" y="461" width="70" height="30" as="geometry" />
        </mxCell>
        <mxCell id="M1T9L96vetbOVjzSAr0i-87" value="Anchor" style="text;html=1;align=center;verticalAlign=middle;resizable=0;points=[];autosize=1;fontSize=16;fontFamily=Computer Modern;fontColor=#FFFFFF;" parent="1" vertex="1">
          <mxGeometry x="810" y="541" width="60" height="20" as="geometry" />
        </mxCell>
        <mxCell id="M1T9L96vetbOVjzSAr0i-101" value="&lt;font style=&quot;font-size: 14px&quot;&gt;Лимит повторных &lt;br&gt;передач превышен,&lt;br&gt;последняя попытка&lt;/font&gt;" style="text;html=1;align=center;verticalAlign=middle;resizable=0;points=[];autosize=1;fontSize=18;fontFamily=Computer Modern;" parent="1" vertex="1">
          <mxGeometry x="711" y="310" width="130" height="80" as="geometry" />
        </mxCell>
        <mxCell id="M1T9L96vetbOVjzSAr0i-106" value="..." style="text;html=1;align=center;verticalAlign=middle;resizable=0;points=[];autosize=1;fontSize=20;fontFamily=Computer Modern;" parent="1" vertex="1">
          <mxGeometry x="736" y="275" width="30" height="30" as="geometry" />
        </mxCell>
        <mxCell id="U9n-DQuYV-xtyZ2agogh-1" value="&lt;font style=&quot;font-size: 18px&quot;&gt;Успешное получение&lt;/font&gt;" style="text;html=1;align=center;verticalAlign=middle;resizable=0;points=[];autosize=1;fontSize=20;fontFamily=Computer Modern;" parent="1" vertex="1">
          <mxGeometry x="528" y="60" width="180" height="30" as="geometry" />
        </mxCell>
        <mxCell id="1S7BGIjd2XA8xjY8Qh8_-1" value="\(t\)" style="text;html=1;align=center;verticalAlign=middle;resizable=0;points=[];autosize=1;fontSize=24;fontFamily=Computer Modern;" parent="1" vertex="1">
          <mxGeometry x="940" y="500" width="50" height="30" as="geometry" />
        </mxCell>
        <mxCell id="1S7BGIjd2XA8xjY8Qh8_-2" value="\(t\)" style="text;html=1;align=center;verticalAlign=middle;resizable=0;points=[];autosize=1;fontSize=24;fontFamily=Computer Modern;" parent="1" vertex="1">
          <mxGeometry x="940" y="322" width="50" height="30" as="geometry" />
        </mxCell>
        <mxCell id="1S7BGIjd2XA8xjY8Qh8_-3" value="\(t\)" style="text;html=1;align=center;verticalAlign=middle;resizable=0;points=[];autosize=1;fontSize=24;fontFamily=Computer Modern;" parent="1" vertex="1">
          <mxGeometry x="940" y="140" width="50" height="30" as="geometry" />
        </mxCell>
        <mxCell id="VM5yxHLF2EsxV9M6Ul3a-18" value="&lt;font style=&quot;font-size: 18px&quot;&gt;B&lt;/font&gt;" style="rounded=0;whiteSpace=wrap;html=1;fontFamily=Computer Modern;fontSize=22;align=center;horizontal=1;fillColor=#fff2cc;strokeColor=#d6b656;" parent="1" vertex="1">
          <mxGeometry x="170" y="274" width="15" height="40" as="geometry" />
        </mxCell>
        <mxCell id="VM5yxHLF2EsxV9M6Ul3a-33" value="" style="endArrow=none;dashed=1;html=1;strokeWidth=1;fontFamily=Computer Modern;fontSize=20;exitX=0.583;exitY=-0.061;exitDx=0;exitDy=0;exitPerimeter=0;" parent="1" edge="1">
          <mxGeometry width="50" height="50" relative="1" as="geometry">
            <mxPoint x="534.96" y="228.55999999999995" as="sourcePoint" />
            <mxPoint x="535" y="281" as="targetPoint" />
          </mxGeometry>
        </mxCell>
        <mxCell id="VM5yxHLF2EsxV9M6Ul3a-43" value="&lt;font style=&quot;font-size: 18px&quot;&gt;DATA&lt;/font&gt;" style="rounded=0;whiteSpace=wrap;html=1;fontFamily=Computer Modern;fontSize=22;align=center;fillColor=#e1d5e7;strokeColor=#9673a6;" parent="1" vertex="1">
          <mxGeometry x="550" y="274" width="50" height="40" as="geometry" />
        </mxCell>
        <mxCell id="VM5yxHLF2EsxV9M6Ul3a-48" value="" style="endArrow=none;dashed=1;html=1;strokeWidth=1;fontFamily=Computer Modern;fontSize=20;" parent="1" edge="1">
          <mxGeometry width="50" height="50" relative="1" as="geometry">
            <mxPoint x="581" y="131.5" as="sourcePoint" />
            <mxPoint x="581" y="241.5" as="targetPoint" />
          </mxGeometry>
        </mxCell>
        <mxCell id="VM5yxHLF2EsxV9M6Ul3a-49" value="" style="endArrow=classic;startArrow=classic;html=1;fontFamily=Computer Modern;fontSize=20;" parent="1" edge="1">
          <mxGeometry width="50" height="50" relative="1" as="geometry">
            <mxPoint x="550" y="240.5" as="sourcePoint" />
            <mxPoint x="580" y="240.63999999999987" as="targetPoint" />
          </mxGeometry>
        </mxCell>
        <mxCell id="VM5yxHLF2EsxV9M6Ul3a-50" value="&lt;font style=&quot;font-size: 18px&quot;&gt;\(\tau_{wait}\)&lt;/font&gt;" style="text;html=1;align=center;verticalAlign=middle;resizable=0;points=[];autosize=1;fontSize=24;fontFamily=Computer Modern;" parent="1" vertex="1">
          <mxGeometry x="554" y="378" width="120" height="40" as="geometry" />
        </mxCell>
        <mxCell id="VM5yxHLF2EsxV9M6Ul3a-56" value="&lt;font style=&quot;font-size: 18px&quot;&gt;\(\tau_{out}\)&lt;/font&gt;" style="text;html=1;align=center;verticalAlign=middle;resizable=0;points=[];autosize=1;fontSize=24;fontFamily=Computer Modern;" parent="1" vertex="1">
          <mxGeometry x="285" y="379" width="110" height="40" as="geometry" />
        </mxCell>
        <mxCell id="VM5yxHLF2EsxV9M6Ul3a-58" value="" style="endArrow=classic;startArrow=classic;html=1;dashed=1;strokeWidth=1;fontFamily=Computer Modern;fontSize=20;" parent="1" edge="1">
          <mxGeometry width="50" height="50" relative="1" as="geometry">
            <mxPoint x="391" y="415.14" as="sourcePoint" />
            <mxPoint x="550" y="413" as="targetPoint" />
          </mxGeometry>
        </mxCell>
        <mxCell id="VM5yxHLF2EsxV9M6Ul3a-60" value="&lt;font style=&quot;font-size: 18px&quot;&gt;\(\tau_{bo_2}\)&lt;/font&gt;" style="text;html=1;align=center;verticalAlign=middle;resizable=0;points=[];autosize=1;fontSize=24;fontFamily=Computer Modern;" parent="1" vertex="1">
          <mxGeometry x="379" y="379" width="130" height="40" as="geometry" />
        </mxCell>
        <mxCell id="VM5yxHLF2EsxV9M6Ul3a-65" value="" style="endArrow=none;dashed=1;html=1;strokeWidth=1;fontFamily=Computer Modern;fontSize=20;exitX=0;exitY=1;exitDx=0;exitDy=0;" parent="1" edge="1">
          <mxGeometry width="50" height="50" relative="1" as="geometry">
            <mxPoint x="508" y="135" as="sourcePoint" />
            <mxPoint x="508" y="250" as="targetPoint" />
          </mxGeometry>
        </mxCell>
        <mxCell id="VM5yxHLF2EsxV9M6Ul3a-69" value="&lt;font style=&quot;font-size: 14px&quot;&gt;Канал&lt;br&gt;занят&lt;/font&gt;" style="rounded=0;whiteSpace=wrap;html=1;fillColor=#f5f5f5;strokeColor=#666666;fontColor=#333333;" parent="1" vertex="1">
          <mxGeometry x="566" y="452" width="104" height="40" as="geometry" />
        </mxCell>
        <mxCell id="VM5yxHLF2EsxV9M6Ul3a-75" value="" style="endArrow=classic;startArrow=classic;html=1;dashed=1;strokeWidth=1;fontFamily=Computer Modern;fontSize=20;" parent="1" edge="1">
          <mxGeometry width="50" height="50" relative="1" as="geometry">
            <mxPoint x="670" y="414" as="sourcePoint" />
            <mxPoint x="720" y="414" as="targetPoint" />
          </mxGeometry>
        </mxCell>
        <mxCell id="Nup5ZJgNAyGnEssvOFhI-1" value="&lt;font style=&quot;font-size: 12px&quot;&gt;&lt;font style=&quot;font-family: &amp;#34;computer modern&amp;#34;&quot;&gt;cts&lt;/font&gt;&lt;br style=&quot;font-family: &amp;#34;computer modern&amp;#34;&quot;&gt;&lt;span style=&quot;font-family: &amp;#34;computer modern&amp;#34;&quot;&gt;не получен&lt;/span&gt;&lt;/font&gt;" style="rounded=0;whiteSpace=wrap;html=1;fillColor=#ffffff;strokeColor=none;" parent="1" vertex="1">
          <mxGeometry x="303" y="246.5" width="60" height="24.5" as="geometry" />
        </mxCell>
        <mxCell id="Nup5ZJgNAyGnEssvOFhI-4" value="&lt;font style=&quot;font-size: 18px&quot;&gt;I&lt;/font&gt;" style="rounded=0;whiteSpace=wrap;html=1;fontFamily=Computer Modern;fontSize=22;align=center;horizontal=1;fillColor=#fad9d5;strokeColor=#ae4132;" parent="1" vertex="1">
          <mxGeometry x="186" y="274" width="15" height="40" as="geometry" />
        </mxCell>
        <mxCell id="Nup5ZJgNAyGnEssvOFhI-6" value="&lt;font style=&quot;font-size: 18px&quot;&gt;B&lt;/font&gt;" style="rounded=0;whiteSpace=wrap;html=1;fontFamily=Computer Modern;fontSize=22;align=center;horizontal=1;fillColor=#fff2cc;strokeColor=#d6b656;" parent="1" vertex="1">
          <mxGeometry x="180" y="452" width="15" height="40" as="geometry" />
        </mxCell>
        <mxCell id="Nup5ZJgNAyGnEssvOFhI-7" value="&lt;font style=&quot;font-size: 18px&quot;&gt;I&lt;/font&gt;" style="rounded=0;whiteSpace=wrap;html=1;fontFamily=Computer Modern;fontSize=22;align=center;horizontal=1;fillColor=#fad9d5;strokeColor=#ae4132;" parent="1" vertex="1">
          <mxGeometry x="196" y="452" width="15" height="40" as="geometry" />
        </mxCell>
        <mxCell id="Nup5ZJgNAyGnEssvOFhI-9" value="R&lt;br&gt;T&lt;br&gt;S" style="rounded=0;whiteSpace=wrap;html=1;fillColor=#d5e8d4;strokeColor=#82b366;" parent="1" vertex="1">
          <mxGeometry x="302" y="95" width="16" height="40" as="geometry" />
        </mxCell>
        <mxCell id="Nup5ZJgNAyGnEssvOFhI-10" value="&lt;font style=&quot;font-size: 18px&quot;&gt;B&lt;/font&gt;" style="rounded=0;whiteSpace=wrap;html=1;fontFamily=Computer Modern;fontSize=22;align=center;horizontal=1;fillColor=#fff2cc;strokeColor=#d6b656;" parent="1" vertex="1">
          <mxGeometry x="140" y="96" width="15" height="40" as="geometry" />
        </mxCell>
        <mxCell id="Nup5ZJgNAyGnEssvOFhI-11" value="R&lt;br&gt;T&lt;br&gt;S" style="rounded=0;whiteSpace=wrap;html=1;fillColor=#dae8fc;strokeColor=#6c8ebf;" parent="1" vertex="1">
          <mxGeometry x="250" y="274" width="16" height="40" as="geometry" />
        </mxCell>
        <mxCell id="Nup5ZJgNAyGnEssvOFhI-12" value="R&lt;br&gt;T&lt;br&gt;S" style="rounded=0;whiteSpace=wrap;html=1;fillColor=#dae8fc;strokeColor=#6c8ebf;" parent="1" vertex="1">
          <mxGeometry x="281" y="95" width="16" height="40" as="geometry" />
        </mxCell>
        <mxCell id="Nup5ZJgNAyGnEssvOFhI-17" value="&lt;font style=&quot;font-size: 18px&quot;&gt;\(\tau_{p_1}\)&lt;/font&gt;" style="text;html=1;align=center;verticalAlign=middle;resizable=0;points=[];autosize=1;fontSize=24;fontFamily=Computer Modern;" parent="1" vertex="1">
          <mxGeometry x="205" y="198" width="120" height="40" as="geometry" />
        </mxCell>
        <mxCell id="Nup5ZJgNAyGnEssvOFhI-18" value="" style="endArrow=none;dashed=1;html=1;strokeWidth=1;fontFamily=Computer Modern;fontSize=20;" parent="1" edge="1">
          <mxGeometry width="50" height="50" relative="1" as="geometry">
            <mxPoint x="281" y="130" as="sourcePoint" />
            <mxPoint x="281" y="250" as="targetPoint" />
          </mxGeometry>
        </mxCell>
        <mxCell id="Nup5ZJgNAyGnEssvOFhI-19" value="" style="endArrow=classic;startArrow=classic;html=1;fontFamily=Computer Modern;fontSize=20;" parent="1" edge="1">
          <mxGeometry width="50" height="50" relative="1" as="geometry">
            <mxPoint x="251" y="240.0000000000001" as="sourcePoint" />
            <mxPoint x="281" y="240.14" as="targetPoint" />
          </mxGeometry>
        </mxCell>
        <mxCell id="Nup5ZJgNAyGnEssvOFhI-21" value="" style="endArrow=none;dashed=1;html=1;strokeWidth=1;fontFamily=Computer Modern;fontSize=20;" parent="1" edge="1">
          <mxGeometry width="50" height="50" relative="1" as="geometry">
            <mxPoint x="263" y="400" as="sourcePoint" />
            <mxPoint x="263" y="453" as="targetPoint" />
            <Array as="points">
              <mxPoint x="263" y="403" />
            </Array>
          </mxGeometry>
        </mxCell>
        <mxCell id="Nup5ZJgNAyGnEssvOFhI-22" value="R&lt;br&gt;T&lt;br&gt;S" style="rounded=0;whiteSpace=wrap;html=1;fillColor=#d5e8d4;strokeColor=#82b366;" parent="1" vertex="1">
          <mxGeometry x="263" y="452" width="16" height="40" as="geometry" />
        </mxCell>
        <mxCell id="Nup5ZJgNAyGnEssvOFhI-23" value="&lt;font style=&quot;font-size: 18px&quot;&gt;\(\tau_{p_2}\)&lt;/font&gt;" style="text;html=1;align=center;verticalAlign=middle;resizable=0;points=[];autosize=1;fontSize=24;fontFamily=Computer Modern;" parent="1" vertex="1">
          <mxGeometry x="224" y="377" width="120" height="40" as="geometry" />
        </mxCell>
        <mxCell id="Nup5ZJgNAyGnEssvOFhI-26" value="" style="rounded=0;whiteSpace=wrap;html=1;fillColor=#e51400;strokeColor=#B20000;fontColor=#ffffff;" parent="1" vertex="1">
          <mxGeometry x="296" y="95" width="8" height="40" as="geometry" />
        </mxCell>
        <mxCell id="Nup5ZJgNAyGnEssvOFhI-28" value="" style="endArrow=none;dashed=1;html=1;entryX=0.75;entryY=1;entryDx=0;entryDy=0;" parent="1" target="Nup5ZJgNAyGnEssvOFhI-26" edge="1">
          <mxGeometry width="50" height="50" relative="1" as="geometry">
            <mxPoint x="302" y="440.4544677734375" as="sourcePoint" />
            <mxPoint x="302" y="140" as="targetPoint" />
          </mxGeometry>
        </mxCell>
        <mxCell id="Nup5ZJgNAyGnEssvOFhI-30" value="" style="endArrow=classic;startArrow=classic;html=1;fontFamily=Computer Modern;fontSize=20;" parent="1" edge="1">
          <mxGeometry width="50" height="50" relative="1" as="geometry">
            <mxPoint x="263" y="414" as="sourcePoint" />
            <mxPoint x="303" y="414.1399999999999" as="targetPoint" />
          </mxGeometry>
        </mxCell>
        <mxCell id="Nup5ZJgNAyGnEssvOFhI-31" value="" style="endArrow=classic;startArrow=classic;html=1;dashed=1;strokeWidth=1;fontFamily=Computer Modern;fontSize=20;" parent="1" edge="1">
          <mxGeometry width="50" height="50" relative="1" as="geometry">
            <mxPoint x="302" y="414" as="sourcePoint" />
            <mxPoint x="390" y="415" as="targetPoint" />
          </mxGeometry>
        </mxCell>
        <mxCell id="Nup5ZJgNAyGnEssvOFhI-33" value="" style="shape=flexArrow;endArrow=classic;html=1;endWidth=7;endSize=4.105;" parent="1" edge="1">
          <mxGeometry width="50" height="50" relative="1" as="geometry">
            <mxPoint x="366" y="255.5" as="sourcePoint" />
            <mxPoint x="393" y="256" as="targetPoint" />
            <Array as="points">
              <mxPoint x="383" y="256" />
            </Array>
          </mxGeometry>
        </mxCell>
        <mxCell id="Nup5ZJgNAyGnEssvOFhI-34" value="&lt;font face=&quot;computer modern&quot;&gt;Повторная&amp;nbsp;&lt;br&gt;попытка&lt;br&gt;&lt;/font&gt;" style="rounded=0;whiteSpace=wrap;html=1;fillColor=#ffffff;strokeColor=none;" parent="1" vertex="1">
          <mxGeometry x="397" y="246.5" width="60" height="24.5" as="geometry" />
        </mxCell>
        <mxCell id="Nup5ZJgNAyGnEssvOFhI-42" value="R&lt;br&gt;T&lt;br&gt;S" style="rounded=0;whiteSpace=wrap;html=1;fillColor=#dae8fc;strokeColor=#6c8ebf;" parent="1" vertex="1">
          <mxGeometry x="461" y="275" width="16" height="40" as="geometry" />
        </mxCell>
        <mxCell id="Nup5ZJgNAyGnEssvOFhI-43" value="R&lt;br&gt;T&lt;br&gt;S" style="rounded=0;whiteSpace=wrap;html=1;fillColor=#dae8fc;strokeColor=#6c8ebf;" parent="1" vertex="1">
          <mxGeometry x="492" y="95" width="16" height="40" as="geometry" />
        </mxCell>
        <mxCell id="Nup5ZJgNAyGnEssvOFhI-44" value="&lt;font style=&quot;font-size: 18px&quot;&gt;\(\tau_{p_1}\)&lt;/font&gt;" style="text;html=1;align=center;verticalAlign=middle;resizable=0;points=[];autosize=1;fontSize=24;fontFamily=Computer Modern;" parent="1" vertex="1">
          <mxGeometry x="416" y="200" width="120" height="40" as="geometry" />
        </mxCell>
        <mxCell id="Nup5ZJgNAyGnEssvOFhI-45" value="" style="endArrow=none;dashed=1;html=1;strokeWidth=1;fontFamily=Computer Modern;fontSize=20;entryX=0.915;entryY=0.888;entryDx=0;entryDy=0;entryPerimeter=0;" parent="1" edge="1">
          <mxGeometry width="50" height="50" relative="1" as="geometry">
            <mxPoint x="492" y="135" as="sourcePoint" />
            <mxPoint x="491.95000000000005" y="255.01999999999998" as="targetPoint" />
          </mxGeometry>
        </mxCell>
        <mxCell id="Nup5ZJgNAyGnEssvOFhI-46" value="" style="endArrow=classic;startArrow=classic;html=1;fontFamily=Computer Modern;fontSize=20;" parent="1" edge="1">
          <mxGeometry width="50" height="50" relative="1" as="geometry">
            <mxPoint x="460" y="241.0000000000001" as="sourcePoint" />
            <mxPoint x="490" y="241.14" as="targetPoint" />
          </mxGeometry>
        </mxCell>
        <mxCell id="Nup5ZJgNAyGnEssvOFhI-47" value="С&lt;br&gt;T&lt;br&gt;S" style="rounded=0;whiteSpace=wrap;html=1;fillColor=#f5f5f5;strokeColor=#666666;fontColor=#333333;" parent="1" vertex="1">
          <mxGeometry x="508" y="95" width="16" height="40" as="geometry" />
        </mxCell>
        <mxCell id="Nup5ZJgNAyGnEssvOFhI-49" value="" style="endArrow=classic;startArrow=classic;html=1;fontFamily=Computer Modern;fontSize=20;" parent="1" edge="1">
          <mxGeometry width="50" height="50" relative="1" as="geometry">
            <mxPoint x="506" y="240" as="sourcePoint" />
            <mxPoint x="536" y="240.13999999999987" as="targetPoint" />
          </mxGeometry>
        </mxCell>
        <mxCell id="Nup5ZJgNAyGnEssvOFhI-51" value="С&lt;br&gt;T&lt;br&gt;S" style="rounded=0;whiteSpace=wrap;html=1;fillColor=#f5f5f5;strokeColor=#666666;fontColor=#333333;" parent="1" vertex="1">
          <mxGeometry x="535" y="274" width="16" height="40" as="geometry" />
        </mxCell>
        <mxCell id="Nup5ZJgNAyGnEssvOFhI-53" value="" style="endArrow=none;dashed=1;html=1;strokeWidth=1;fontFamily=Computer Modern;fontSize=20;" parent="1" edge="1">
          <mxGeometry width="50" height="50" relative="1" as="geometry">
            <mxPoint x="550" y="410" as="sourcePoint" />
            <mxPoint x="550" y="484" as="targetPoint" />
            <Array as="points">
              <mxPoint x="550" y="434" />
              <mxPoint x="550" y="451" />
            </Array>
          </mxGeometry>
        </mxCell>
        <mxCell id="Nup5ZJgNAyGnEssvOFhI-55" value="С&lt;br&gt;T&lt;br&gt;S" style="rounded=0;whiteSpace=wrap;html=1;fillColor=#f5f5f5;strokeColor=#666666;fontColor=#333333;" parent="1" vertex="1">
          <mxGeometry x="550" y="452" width="16" height="40" as="geometry" />
        </mxCell>
        <mxCell id="Nup5ZJgNAyGnEssvOFhI-56" value="" style="endArrow=none;dashed=1;html=1;strokeWidth=1;fontFamily=Computer Modern;fontSize=20;" parent="1" edge="1">
          <mxGeometry width="50" height="50" relative="1" as="geometry">
            <mxPoint x="551" y="230" as="sourcePoint" />
            <mxPoint x="550.5" y="280" as="targetPoint" />
          </mxGeometry>
        </mxCell>
        <mxCell id="Nup5ZJgNAyGnEssvOFhI-57" value="&lt;font style=&quot;font-size: 18px&quot;&gt;DATA&lt;/font&gt;" style="rounded=0;whiteSpace=wrap;html=1;fontFamily=Computer Modern;fontSize=22;align=center;fillColor=#e1d5e7;strokeColor=#9673a6;" parent="1" vertex="1">
          <mxGeometry x="581" y="94" width="50" height="40" as="geometry" />
        </mxCell>
        <mxCell id="Nup5ZJgNAyGnEssvOFhI-59" value="&lt;font style=&quot;font-size: 18px&quot;&gt;A&lt;/font&gt;" style="rounded=0;whiteSpace=wrap;html=1;fillColor=#6d8764;strokeColor=#3A5431;fontColor=#ffffff;" parent="1" vertex="1">
          <mxGeometry x="631" y="94" width="16" height="40" as="geometry" />
        </mxCell>
        <mxCell id="Nup5ZJgNAyGnEssvOFhI-63" value="" style="endArrow=none;dashed=1;html=1;strokeWidth=1;fontFamily=Computer Modern;fontSize=20;exitX=0;exitY=1;exitDx=0;exitDy=0;" parent="1" edge="1">
          <mxGeometry width="50" height="50" relative="1" as="geometry">
            <mxPoint x="631" y="134" as="sourcePoint" />
            <mxPoint x="631" y="250" as="targetPoint" />
          </mxGeometry>
        </mxCell>
        <mxCell id="Nup5ZJgNAyGnEssvOFhI-64" value="" style="endArrow=classic;startArrow=classic;html=1;fontFamily=Computer Modern;fontSize=20;" parent="1" edge="1">
          <mxGeometry width="50" height="50" relative="1" as="geometry">
            <mxPoint x="631" y="240.5" as="sourcePoint" />
            <mxPoint x="661" y="240.63999999999987" as="targetPoint" />
          </mxGeometry>
        </mxCell>
        <mxCell id="Nup5ZJgNAyGnEssvOFhI-65" value="" style="endArrow=none;dashed=1;html=1;strokeWidth=1;fontFamily=Computer Modern;fontSize=20;" parent="1" edge="1">
          <mxGeometry width="50" height="50" relative="1" as="geometry">
            <mxPoint x="461" y="226" as="sourcePoint" />
            <mxPoint x="461" y="276" as="targetPoint" />
            <Array as="points">
              <mxPoint x="461" y="226" />
            </Array>
          </mxGeometry>
        </mxCell>
        <mxCell id="Nup5ZJgNAyGnEssvOFhI-66" value="" style="endArrow=none;dashed=1;html=1;strokeWidth=1;fontFamily=Computer Modern;fontSize=20;entryX=0;entryY=0;entryDx=0;entryDy=0;" parent="1" target="Nup5ZJgNAyGnEssvOFhI-67" edge="1">
          <mxGeometry width="50" height="50" relative="1" as="geometry">
            <mxPoint x="658" y="230" as="sourcePoint" />
            <mxPoint x="658" y="319.61" as="targetPoint" />
          </mxGeometry>
        </mxCell>
        <mxCell id="Nup5ZJgNAyGnEssvOFhI-67" value="&lt;font style=&quot;font-size: 18px&quot;&gt;A&lt;/font&gt;" style="rounded=0;whiteSpace=wrap;html=1;fillColor=#6d8764;strokeColor=#3A5431;fontColor=#ffffff;" parent="1" vertex="1">
          <mxGeometry x="658" y="274" width="16" height="40" as="geometry" />
        </mxCell>
        <mxCell id="Nup5ZJgNAyGnEssvOFhI-68" value="" style="endArrow=classic;startArrow=classic;html=1;fontFamily=Computer Modern;fontSize=20;" parent="1" edge="1">
          <mxGeometry width="50" height="50" relative="1" as="geometry">
            <mxPoint x="567" y="414" as="sourcePoint" />
            <mxPoint x="668" y="414.1399999999999" as="targetPoint" />
          </mxGeometry>
        </mxCell>
        <mxCell id="Nup5ZJgNAyGnEssvOFhI-69" value="" style="endArrow=none;dashed=1;html=1;strokeWidth=1;fontFamily=Computer Modern;fontSize=20;" parent="1" edge="1">
          <mxGeometry width="50" height="50" relative="1" as="geometry">
            <mxPoint x="566" y="410" as="sourcePoint" />
            <mxPoint x="566" y="492" as="targetPoint" />
            <Array as="points">
              <mxPoint x="566" y="442" />
              <mxPoint x="566" y="459" />
            </Array>
          </mxGeometry>
        </mxCell>
        <mxCell id="Nup5ZJgNAyGnEssvOFhI-70" value="" style="endArrow=none;dashed=1;html=1;strokeWidth=1;fontFamily=Computer Modern;fontSize=20;" parent="1" edge="1">
          <mxGeometry width="50" height="50" relative="1" as="geometry">
            <mxPoint x="670" y="410" as="sourcePoint" />
            <mxPoint x="670" y="492" as="targetPoint" />
            <Array as="points">
              <mxPoint x="670" y="442" />
              <mxPoint x="670" y="459" />
            </Array>
          </mxGeometry>
        </mxCell>
        <mxCell id="Nup5ZJgNAyGnEssvOFhI-71" value="&lt;font style=&quot;font-size: 18px&quot;&gt;I&lt;/font&gt;" style="rounded=0;whiteSpace=wrap;html=1;fontFamily=Computer Modern;fontSize=22;align=center;horizontal=1;fillColor=#fad9d5;strokeColor=#ae4132;" parent="1" vertex="1">
          <mxGeometry x="674" y="274" width="15" height="40" as="geometry" />
        </mxCell>
        <mxCell id="Nup5ZJgNAyGnEssvOFhI-77" value="&lt;font style=&quot;font-size: 18px&quot;&gt;\(\tau_{p_1}\)&lt;/font&gt;" style="text;html=1;align=center;verticalAlign=middle;resizable=0;points=[];autosize=1;fontSize=24;fontFamily=Computer Modern;" parent="1" vertex="1">
          <mxGeometry x="461" y="200" width="120" height="40" as="geometry" />
        </mxCell>
        <mxCell id="Nup5ZJgNAyGnEssvOFhI-78" value="&lt;font style=&quot;font-size: 18px&quot;&gt;\(\tau_{p_1}\)&lt;/font&gt;" style="text;html=1;align=center;verticalAlign=middle;resizable=0;points=[];autosize=1;fontSize=24;fontFamily=Computer Modern;" parent="1" vertex="1">
          <mxGeometry x="504" y="200" width="120" height="40" as="geometry" />
        </mxCell>
        <mxCell id="Nup5ZJgNAyGnEssvOFhI-79" value="&lt;font style=&quot;font-size: 18px&quot;&gt;\(\tau_{p_1}\)&lt;/font&gt;" style="text;html=1;align=center;verticalAlign=middle;resizable=0;points=[];autosize=1;fontSize=24;fontFamily=Computer Modern;" parent="1" vertex="1">
          <mxGeometry x="585" y="200" width="120" height="40" as="geometry" />
        </mxCell>
        <mxCell id="Nup5ZJgNAyGnEssvOFhI-80" value="&lt;font style=&quot;font-size: 18px&quot;&gt;\(\tau_{bo_2}\)&lt;/font&gt;" style="text;html=1;align=center;verticalAlign=middle;resizable=0;points=[];autosize=1;fontSize=24;fontFamily=Computer Modern;" parent="1" vertex="1">
          <mxGeometry x="624" y="377" width="130" height="40" as="geometry" />
        </mxCell>
        <mxCell id="Nup5ZJgNAyGnEssvOFhI-82" value="R&lt;br&gt;T&lt;br&gt;S" style="rounded=0;whiteSpace=wrap;html=1;fillColor=#d5e8d4;strokeColor=#82b366;" parent="1" vertex="1">
          <mxGeometry x="263" y="452" width="16" height="40" as="geometry" />
        </mxCell>
        <mxCell id="Nup5ZJgNAyGnEssvOFhI-83" value="R&lt;br&gt;T&lt;br&gt;S" style="rounded=0;whiteSpace=wrap;html=1;fillColor=#d5e8d4;strokeColor=#82b366;" parent="1" vertex="1">
          <mxGeometry x="720" y="452" width="16" height="40" as="geometry" />
        </mxCell>
        <mxCell id="Nup5ZJgNAyGnEssvOFhI-84" value="" style="endArrow=none;dashed=1;html=1;strokeWidth=1;fontFamily=Computer Modern;fontSize=20;" parent="1" edge="1">
          <mxGeometry width="50" height="50" relative="1" as="geometry">
            <mxPoint x="720" y="410" as="sourcePoint" />
            <mxPoint x="720" y="449" as="targetPoint" />
            <Array as="points">
              <mxPoint x="720" y="399" />
              <mxPoint x="720" y="416" />
            </Array>
          </mxGeometry>
        </mxCell>
        <mxCell id="Nup5ZJgNAyGnEssvOFhI-85" value="" style="endArrow=none;dashed=1;html=1;strokeWidth=1;fontFamily=Computer Modern;fontSize=20;" parent="1" edge="1">
          <mxGeometry width="50" height="50" relative="1" as="geometry">
            <mxPoint x="802" y="229" as="sourcePoint" />
            <mxPoint x="802" y="270" as="targetPoint" />
            <Array as="points">
              <mxPoint x="802" y="220" />
            </Array>
          </mxGeometry>
        </mxCell>
        <mxCell id="Nup5ZJgNAyGnEssvOFhI-86" value="R&lt;br&gt;T&lt;br&gt;S" style="rounded=0;whiteSpace=wrap;html=1;fillColor=#d5e8d4;strokeColor=#82b366;" parent="1" vertex="1">
          <mxGeometry x="854" y="94" width="16" height="40" as="geometry" />
        </mxCell>
        <mxCell id="Nup5ZJgNAyGnEssvOFhI-87" value="R&lt;br&gt;T&lt;br&gt;S" style="rounded=0;whiteSpace=wrap;html=1;fillColor=#dae8fc;strokeColor=#6c8ebf;" parent="1" vertex="1">
          <mxGeometry x="802" y="273" width="16" height="40" as="geometry" />
        </mxCell>
        <mxCell id="Nup5ZJgNAyGnEssvOFhI-88" value="R&lt;br&gt;T&lt;br&gt;S" style="rounded=0;whiteSpace=wrap;html=1;fillColor=#dae8fc;strokeColor=#6c8ebf;" parent="1" vertex="1">
          <mxGeometry x="833" y="94" width="16" height="40" as="geometry" />
        </mxCell>
        <mxCell id="Nup5ZJgNAyGnEssvOFhI-89" value="" style="endArrow=none;dashed=1;html=1;strokeWidth=1;fontFamily=Computer Modern;fontSize=20;" parent="1" edge="1">
          <mxGeometry width="50" height="50" relative="1" as="geometry">
            <mxPoint x="833" y="129" as="sourcePoint" />
            <mxPoint x="833" y="249" as="targetPoint" />
          </mxGeometry>
        </mxCell>
        <mxCell id="Nup5ZJgNAyGnEssvOFhI-90" value="" style="endArrow=classic;startArrow=classic;html=1;fontFamily=Computer Modern;fontSize=20;" parent="1" edge="1">
          <mxGeometry width="50" height="50" relative="1" as="geometry">
            <mxPoint x="803" y="239.0000000000001" as="sourcePoint" />
            <mxPoint x="833" y="239.14" as="targetPoint" />
          </mxGeometry>
        </mxCell>
        <mxCell id="Nup5ZJgNAyGnEssvOFhI-91" value="" style="endArrow=none;dashed=1;html=1;strokeWidth=1;fontFamily=Computer Modern;fontSize=20;" parent="1" edge="1">
          <mxGeometry width="50" height="50" relative="1" as="geometry">
            <mxPoint x="815" y="399" as="sourcePoint" />
            <mxPoint x="815" y="452" as="targetPoint" />
            <Array as="points">
              <mxPoint x="815" y="402" />
            </Array>
          </mxGeometry>
        </mxCell>
        <mxCell id="Nup5ZJgNAyGnEssvOFhI-92" value="R&lt;br&gt;T&lt;br&gt;S" style="rounded=0;whiteSpace=wrap;html=1;fillColor=#d5e8d4;strokeColor=#82b366;" parent="1" vertex="1">
          <mxGeometry x="815" y="451" width="16" height="40" as="geometry" />
        </mxCell>
        <mxCell id="Nup5ZJgNAyGnEssvOFhI-93" value="" style="rounded=0;whiteSpace=wrap;html=1;fillColor=#e51400;strokeColor=#B20000;fontColor=#ffffff;" parent="1" vertex="1">
          <mxGeometry x="848" y="94" width="8" height="40" as="geometry" />
        </mxCell>
        <mxCell id="Nup5ZJgNAyGnEssvOFhI-94" value="" style="endArrow=none;dashed=1;html=1;entryX=0.75;entryY=1;entryDx=0;entryDy=0;" parent="1" target="Nup5ZJgNAyGnEssvOFhI-93" edge="1">
          <mxGeometry width="50" height="50" relative="1" as="geometry">
            <mxPoint x="854" y="439.4544677734375" as="sourcePoint" />
            <mxPoint x="854" y="139" as="targetPoint" />
          </mxGeometry>
        </mxCell>
        <mxCell id="Nup5ZJgNAyGnEssvOFhI-95" value="" style="endArrow=classic;startArrow=classic;html=1;fontFamily=Computer Modern;fontSize=20;" parent="1" edge="1">
          <mxGeometry width="50" height="50" relative="1" as="geometry">
            <mxPoint x="815" y="413" as="sourcePoint" />
            <mxPoint x="855" y="413.1399999999999" as="targetPoint" />
          </mxGeometry>
        </mxCell>
        <mxCell id="Nup5ZJgNAyGnEssvOFhI-96" value="R&lt;br&gt;T&lt;br&gt;S" style="rounded=0;whiteSpace=wrap;html=1;fillColor=#d5e8d4;strokeColor=#82b366;" parent="1" vertex="1">
          <mxGeometry x="815" y="451" width="16" height="40" as="geometry" />
        </mxCell>
        <mxCell id="Nup5ZJgNAyGnEssvOFhI-97" value="&lt;font style=&quot;font-size: 18px&quot;&gt;\(\tau_{p_1}\)&lt;/font&gt;" style="text;html=1;align=center;verticalAlign=middle;resizable=0;points=[];autosize=1;fontSize=24;fontFamily=Computer Modern;" parent="1" vertex="1">
          <mxGeometry x="759" y="198.5" width="120" height="40" as="geometry" />
        </mxCell>
        <mxCell id="Nup5ZJgNAyGnEssvOFhI-100" value="&lt;font style=&quot;font-size: 18px&quot;&gt;\(\tau_{p_2}\)&lt;/font&gt;" style="text;html=1;align=center;verticalAlign=middle;resizable=0;points=[];autosize=1;fontSize=24;fontFamily=Computer Modern;" parent="1" vertex="1">
          <mxGeometry x="773" y="374" width="120" height="40" as="geometry" />
        </mxCell>
        <mxCell id="Nup5ZJgNAyGnEssvOFhI-101" value="&lt;font style=&quot;font-size: 18px&quot;&gt;\(\tau_{out}\)&lt;/font&gt;" style="text;html=1;align=center;verticalAlign=middle;resizable=0;points=[];autosize=1;fontSize=24;fontFamily=Computer Modern;" parent="1" vertex="1">
          <mxGeometry x="839" y="378" width="110" height="40" as="geometry" />
        </mxCell>
        <mxCell id="Nup5ZJgNAyGnEssvOFhI-102" value="" style="endArrow=classic;startArrow=classic;html=1;dashed=1;strokeWidth=1;fontFamily=Computer Modern;fontSize=20;" parent="1" edge="1">
          <mxGeometry width="50" height="50" relative="1" as="geometry">
            <mxPoint x="854" y="413" as="sourcePoint" />
            <mxPoint x="942" y="414" as="targetPoint" />
          </mxGeometry>
        </mxCell>
        <mxCell id="Nup5ZJgNAyGnEssvOFhI-103" value="&lt;font style=&quot;font-size: 18px&quot;&gt;I&lt;/font&gt;" style="rounded=0;whiteSpace=wrap;html=1;fontFamily=Computer Modern;fontSize=22;align=center;horizontal=1;fillColor=#fad9d5;strokeColor=#ae4132;" parent="1" vertex="1">
          <mxGeometry x="940" y="451" width="15" height="40" as="geometry" />
        </mxCell>
        <mxCell id="Nup5ZJgNAyGnEssvOFhI-104" value="" style="endArrow=none;dashed=1;html=1;strokeWidth=1;fontFamily=Computer Modern;fontSize=20;" parent="1" edge="1">
          <mxGeometry width="50" height="50" relative="1" as="geometry">
            <mxPoint x="940" y="408" as="sourcePoint" />
            <mxPoint x="940" y="540" as="targetPoint" />
            <Array as="points">
              <mxPoint x="940" y="411" />
            </Array>
          </mxGeometry>
        </mxCell>
        <mxCell id="Nup5ZJgNAyGnEssvOFhI-105" value="&lt;font style=&quot;font-size: 12px&quot;&gt;&lt;font style=&quot;font-family: &amp;#34;computer modern&amp;#34;&quot;&gt;cts&lt;/font&gt;&lt;br style=&quot;font-family: &amp;#34;computer modern&amp;#34;&quot;&gt;&lt;span style=&quot;font-family: &amp;#34;computer modern&amp;#34;&quot;&gt;не получен&lt;/span&gt;&lt;/font&gt;" style="rounded=0;whiteSpace=wrap;html=1;fillColor=#ffffff;strokeColor=none;" parent="1" vertex="1">
          <mxGeometry x="864" y="427.5" width="60" height="24.5" as="geometry" />
        </mxCell>
        <mxCell id="Nup5ZJgNAyGnEssvOFhI-106" value="&lt;font style=&quot;font-size: 12px&quot;&gt;&lt;font style=&quot;font-family: &amp;#34;computer modern&amp;#34;&quot;&gt;cts&lt;/font&gt;&lt;br style=&quot;font-family: &amp;#34;computer modern&amp;#34;&quot;&gt;&lt;span style=&quot;font-family: &amp;#34;computer modern&amp;#34;&quot;&gt;не получен&lt;/span&gt;&lt;/font&gt;" style="rounded=0;whiteSpace=wrap;html=1;fillColor=#ffffff;strokeColor=none;" parent="1" vertex="1">
          <mxGeometry x="310" y="426.5" width="60" height="24.5" as="geometry" />
        </mxCell>
      </root>
    </mxGraphModel>
  </diagram>
  <diagram id="pbSTzTbzo2jCkzKY-eHe" name="aloha markov chain">
    <mxGraphModel dx="744" dy="422" grid="1" gridSize="10" guides="1" tooltips="1" connect="1" arrows="1" fold="1" page="1" pageScale="1" pageWidth="1169" pageHeight="827" math="1" shadow="0">
      <root>
        <mxCell id="pEye7HAxy13Avmr5KGO8-0" />
        <mxCell id="pEye7HAxy13Avmr5KGO8-1" parent="pEye7HAxy13Avmr5KGO8-0" />
        <mxCell id="vWqEl1QQeqnEzlan9y9D-0" value="\(\frac{p_a}{T_{max}}\)&lt;br style=&quot;font-size: 18px;&quot;&gt;" style="text;html=1;align=center;verticalAlign=middle;resizable=0;points=[];autosize=1;fontSize=18;" parent="pEye7HAxy13Avmr5KGO8-1" vertex="1">
          <mxGeometry x="149" y="294" width="190" height="30" as="geometry" />
        </mxCell>
        <mxCell id="vWqEl1QQeqnEzlan9y9D-1" value="\(\frac{p}{2T_{max}}\)" style="text;html=1;align=center;verticalAlign=middle;resizable=0;points=[];autosize=1;fontSize=18;" parent="pEye7HAxy13Avmr5KGO8-1" vertex="1">
          <mxGeometry x="357" y="479" width="180" height="30" as="geometry" />
        </mxCell>
        <mxCell id="vWqEl1QQeqnEzlan9y9D-2" value="\(\frac{p}{2T_{max}}\)" style="text;html=1;align=center;verticalAlign=middle;resizable=0;points=[];autosize=1;fontSize=18;" parent="pEye7HAxy13Avmr5KGO8-1" vertex="1">
          <mxGeometry x="357" y="596" width="180" height="30" as="geometry" />
        </mxCell>
        <mxCell id="vWqEl1QQeqnEzlan9y9D-3" value="\(\frac{p}{2T_{max}}\)" style="text;html=1;align=center;verticalAlign=middle;resizable=0;points=[];autosize=1;fontSize=18;" parent="pEye7HAxy13Avmr5KGO8-1" vertex="1">
          <mxGeometry x="357" y="386" width="180" height="30" as="geometry" />
        </mxCell>
        <mxCell id="vWqEl1QQeqnEzlan9y9D-4" value="\(\frac{p}{2T_{max}}\)" style="text;html=1;align=center;verticalAlign=middle;resizable=0;points=[];autosize=1;fontSize=18;" parent="pEye7HAxy13Avmr5KGO8-1" vertex="1">
          <mxGeometry x="357" y="294" width="180" height="30" as="geometry" />
        </mxCell>
        <mxCell id="vWqEl1QQeqnEzlan9y9D-5" value="\(\frac{p_a}{T_{max}}\)&lt;br style=&quot;font-size: 18px;&quot;&gt;" style="text;html=1;align=center;verticalAlign=middle;resizable=0;points=[];autosize=1;fontSize=18;" parent="pEye7HAxy13Avmr5KGO8-1" vertex="1">
          <mxGeometry x="149" y="386" width="190" height="30" as="geometry" />
        </mxCell>
        <mxCell id="vWqEl1QQeqnEzlan9y9D-6" value="\(\frac{p_a}{T_{max}}\)&lt;br style=&quot;font-size: 18px;&quot;&gt;" style="text;html=1;align=center;verticalAlign=middle;resizable=0;points=[];autosize=1;fontSize=18;" parent="pEye7HAxy13Avmr5KGO8-1" vertex="1">
          <mxGeometry x="149" y="479" width="190" height="30" as="geometry" />
        </mxCell>
        <mxCell id="vWqEl1QQeqnEzlan9y9D-7" value="\(\frac{p_a}{T_{max}}\)&lt;br style=&quot;font-size: 18px;&quot;&gt;" style="text;html=1;align=center;verticalAlign=middle;resizable=0;points=[];autosize=1;fontSize=18;" parent="pEye7HAxy13Avmr5KGO8-1" vertex="1">
          <mxGeometry x="149" y="596" width="190" height="30" as="geometry" />
        </mxCell>
        <mxCell id="vWqEl1QQeqnEzlan9y9D-8" value="\(\frac{p}{(N+1)T_{max}}\)" style="text;html=1;align=center;verticalAlign=middle;resizable=0;points=[];autosize=1;fontSize=18;" parent="pEye7HAxy13Avmr5KGO8-1" vertex="1">
          <mxGeometry x="626" y="596" width="220" height="30" as="geometry" />
        </mxCell>
        <mxCell id="vWqEl1QQeqnEzlan9y9D-9" value="\(\frac{p}{(N+1)T_{max}}\)" style="text;html=1;align=center;verticalAlign=middle;resizable=0;points=[];autosize=1;fontSize=18;" parent="pEye7HAxy13Avmr5KGO8-1" vertex="1">
          <mxGeometry x="626" y="475" width="220" height="30" as="geometry" />
        </mxCell>
        <mxCell id="vWqEl1QQeqnEzlan9y9D-10" value="\(\frac{p}{(N+1)T_{max}}\)" style="text;html=1;align=center;verticalAlign=middle;resizable=0;points=[];autosize=1;fontSize=18;" parent="pEye7HAxy13Avmr5KGO8-1" vertex="1">
          <mxGeometry x="626" y="386" width="220" height="30" as="geometry" />
        </mxCell>
        <mxCell id="vWqEl1QQeqnEzlan9y9D-11" value="\(\frac{p}{(N+1)T_{max}}\)" style="text;html=1;align=center;verticalAlign=middle;resizable=0;points=[];autosize=1;fontSize=18;" parent="pEye7HAxy13Avmr5KGO8-1" vertex="1">
          <mxGeometry x="626" y="294" width="220" height="30" as="geometry" />
        </mxCell>
        <mxCell id="vWqEl1QQeqnEzlan9y9D-12" value="\(DATA^{(1)}\)" style="ellipse;whiteSpace=wrap;html=1;" parent="pEye7HAxy13Avmr5KGO8-1" vertex="1">
          <mxGeometry x="280" y="260" width="100" height="60" as="geometry" />
        </mxCell>
        <mxCell id="vWqEl1QQeqnEzlan9y9D-13" value="\(IDLE\)" style="ellipse;whiteSpace=wrap;html=1;" parent="pEye7HAxy13Avmr5KGO8-1" vertex="1">
          <mxGeometry x="80" y="160" width="100" height="60" as="geometry" />
        </mxCell>
        <mxCell id="vWqEl1QQeqnEzlan9y9D-14" value="\(OUT^{(1)}\)" style="ellipse;whiteSpace=wrap;html=1;" parent="pEye7HAxy13Avmr5KGO8-1" vertex="1">
          <mxGeometry x="280" y="160" width="100" height="60" as="geometry" />
        </mxCell>
        <mxCell id="vWqEl1QQeqnEzlan9y9D-15" value="\(DATA^{(2)}\)" style="ellipse;whiteSpace=wrap;html=1;" parent="pEye7HAxy13Avmr5KGO8-1" vertex="1">
          <mxGeometry x="480" y="260" width="100" height="60" as="geometry" />
        </mxCell>
        <mxCell id="vWqEl1QQeqnEzlan9y9D-16" value="\(OUT^{(2)}\)" style="ellipse;whiteSpace=wrap;html=1;" parent="pEye7HAxy13Avmr5KGO8-1" vertex="1">
          <mxGeometry x="480" y="160" width="100" height="60" as="geometry" />
        </mxCell>
        <mxCell id="vWqEl1QQeqnEzlan9y9D-17" value="\(DATA^{(N+1)}\)" style="ellipse;whiteSpace=wrap;html=1;" parent="pEye7HAxy13Avmr5KGO8-1" vertex="1">
          <mxGeometry x="780" y="260" width="100" height="60" as="geometry" />
        </mxCell>
        <mxCell id="vWqEl1QQeqnEzlan9y9D-18" value="\(OUT^{(N+1)}\)" style="ellipse;whiteSpace=wrap;html=1;" parent="pEye7HAxy13Avmr5KGO8-1" vertex="1">
          <mxGeometry x="780" y="160" width="100" height="60" as="geometry" />
        </mxCell>
        <mxCell id="vWqEl1QQeqnEzlan9y9D-19" value="\(ACK\)" style="ellipse;whiteSpace=wrap;html=1;" parent="pEye7HAxy13Avmr5KGO8-1" vertex="1">
          <mxGeometry x="400" y="80" width="215" height="50" as="geometry" />
        </mxCell>
        <mxCell id="vWqEl1QQeqnEzlan9y9D-20" value="\(BO^{(1)}_{1}\)" style="ellipse;whiteSpace=wrap;html=1;" parent="pEye7HAxy13Avmr5KGO8-1" vertex="1">
          <mxGeometry x="280" y="351" width="100" height="60" as="geometry" />
        </mxCell>
        <mxCell id="vWqEl1QQeqnEzlan9y9D-21" value="\(BO^{(N+1)}_{(N+1)T_{max}-1}\)" style="ellipse;whiteSpace=wrap;html=1;" parent="pEye7HAxy13Avmr5KGO8-1" vertex="1">
          <mxGeometry x="780" y="561" width="100" height="60" as="geometry" />
        </mxCell>
        <mxCell id="vWqEl1QQeqnEzlan9y9D-22" value="\(BO^{(1)}_{2}\)" style="ellipse;whiteSpace=wrap;html=1;" parent="pEye7HAxy13Avmr5KGO8-1" vertex="1">
          <mxGeometry x="280" y="441" width="100" height="60" as="geometry" />
        </mxCell>
        <mxCell id="vWqEl1QQeqnEzlan9y9D-23" value="\(BO^{(1)}_{T_{max}-1}\)" style="ellipse;whiteSpace=wrap;html=1;" parent="pEye7HAxy13Avmr5KGO8-1" vertex="1">
          <mxGeometry x="280" y="561" width="100" height="60" as="geometry" />
        </mxCell>
        <mxCell id="vWqEl1QQeqnEzlan9y9D-24" value="" style="endArrow=classic;html=1;fontSize=18;exitX=1;exitY=0.5;exitDx=0;exitDy=0;entryX=0;entryY=0.5;entryDx=0;entryDy=0;" parent="pEye7HAxy13Avmr5KGO8-1" source="vWqEl1QQeqnEzlan9y9D-13" target="vWqEl1QQeqnEzlan9y9D-12" edge="1">
          <mxGeometry width="50" height="50" relative="1" as="geometry">
            <mxPoint x="540" y="420" as="sourcePoint" />
            <mxPoint x="590" y="370" as="targetPoint" />
            <Array as="points">
              <mxPoint x="210" y="190" />
              <mxPoint x="210" y="290" />
            </Array>
          </mxGeometry>
        </mxCell>
        <mxCell id="vWqEl1QQeqnEzlan9y9D-25" value="" style="endArrow=classic;html=1;fontSize=18;exitX=1;exitY=0.5;exitDx=0;exitDy=0;entryX=0;entryY=0.5;entryDx=0;entryDy=0;" parent="pEye7HAxy13Avmr5KGO8-1" source="vWqEl1QQeqnEzlan9y9D-13" target="vWqEl1QQeqnEzlan9y9D-20" edge="1">
          <mxGeometry width="50" height="50" relative="1" as="geometry">
            <mxPoint x="210" y="200" as="sourcePoint" />
            <mxPoint x="290" y="300" as="targetPoint" />
            <Array as="points">
              <mxPoint x="210" y="190" />
              <mxPoint x="210" y="381" />
            </Array>
          </mxGeometry>
        </mxCell>
        <mxCell id="vWqEl1QQeqnEzlan9y9D-26" value="" style="endArrow=classic;html=1;fontSize=18;exitX=1;exitY=0.5;exitDx=0;exitDy=0;entryX=0;entryY=0.5;entryDx=0;entryDy=0;" parent="pEye7HAxy13Avmr5KGO8-1" source="vWqEl1QQeqnEzlan9y9D-13" target="vWqEl1QQeqnEzlan9y9D-22" edge="1">
          <mxGeometry width="50" height="50" relative="1" as="geometry">
            <mxPoint x="210" y="200" as="sourcePoint" />
            <mxPoint x="290" y="400" as="targetPoint" />
            <Array as="points">
              <mxPoint x="210" y="190" />
              <mxPoint x="210" y="471" />
            </Array>
          </mxGeometry>
        </mxCell>
        <mxCell id="vWqEl1QQeqnEzlan9y9D-27" value="" style="endArrow=classic;html=1;fontSize=18;exitX=1;exitY=0.5;exitDx=0;exitDy=0;entryX=0;entryY=0.5;entryDx=0;entryDy=0;" parent="pEye7HAxy13Avmr5KGO8-1" source="vWqEl1QQeqnEzlan9y9D-13" target="vWqEl1QQeqnEzlan9y9D-23" edge="1">
          <mxGeometry width="50" height="50" relative="1" as="geometry">
            <mxPoint x="210" y="200" as="sourcePoint" />
            <mxPoint x="290" y="500" as="targetPoint" />
            <Array as="points">
              <mxPoint x="210" y="190" />
              <mxPoint x="210" y="591" />
            </Array>
          </mxGeometry>
        </mxCell>
        <mxCell id="vWqEl1QQeqnEzlan9y9D-28" value="" style="endArrow=classic;html=1;fontSize=18;exitX=0.5;exitY=0;exitDx=0;exitDy=0;" parent="pEye7HAxy13Avmr5KGO8-1" source="vWqEl1QQeqnEzlan9y9D-23" edge="1">
          <mxGeometry width="50" height="50" relative="1" as="geometry">
            <mxPoint x="540" y="401" as="sourcePoint" />
            <mxPoint x="330" y="541" as="targetPoint" />
          </mxGeometry>
        </mxCell>
        <mxCell id="vWqEl1QQeqnEzlan9y9D-29" value="" style="endArrow=classic;html=1;fontSize=18;entryX=0.5;entryY=1;entryDx=0;entryDy=0;" parent="pEye7HAxy13Avmr5KGO8-1" target="vWqEl1QQeqnEzlan9y9D-22" edge="1">
          <mxGeometry width="50" height="50" relative="1" as="geometry">
            <mxPoint x="330" y="521" as="sourcePoint" />
            <mxPoint x="340" y="551" as="targetPoint" />
          </mxGeometry>
        </mxCell>
        <mxCell id="vWqEl1QQeqnEzlan9y9D-30" value="" style="endArrow=classic;html=1;fontSize=18;exitX=0.5;exitY=0;exitDx=0;exitDy=0;entryX=0.5;entryY=1;entryDx=0;entryDy=0;" parent="pEye7HAxy13Avmr5KGO8-1" source="vWqEl1QQeqnEzlan9y9D-22" target="vWqEl1QQeqnEzlan9y9D-20" edge="1">
          <mxGeometry width="50" height="50" relative="1" as="geometry">
            <mxPoint x="540" y="420" as="sourcePoint" />
            <mxPoint x="590" y="370" as="targetPoint" />
          </mxGeometry>
        </mxCell>
        <mxCell id="vWqEl1QQeqnEzlan9y9D-31" value="" style="endArrow=classic;html=1;fontSize=18;exitX=0.5;exitY=0;exitDx=0;exitDy=0;entryX=0.5;entryY=1;entryDx=0;entryDy=0;" parent="pEye7HAxy13Avmr5KGO8-1" source="vWqEl1QQeqnEzlan9y9D-20" target="vWqEl1QQeqnEzlan9y9D-12" edge="1">
          <mxGeometry width="50" height="50" relative="1" as="geometry">
            <mxPoint x="540" y="420" as="sourcePoint" />
            <mxPoint x="590" y="370" as="targetPoint" />
          </mxGeometry>
        </mxCell>
        <mxCell id="vWqEl1QQeqnEzlan9y9D-32" value="" style="endArrow=classic;html=1;fontSize=18;exitX=0.5;exitY=0;exitDx=0;exitDy=0;entryX=0.5;entryY=1;entryDx=0;entryDy=0;" parent="pEye7HAxy13Avmr5KGO8-1" source="vWqEl1QQeqnEzlan9y9D-12" target="vWqEl1QQeqnEzlan9y9D-14" edge="1">
          <mxGeometry width="50" height="50" relative="1" as="geometry">
            <mxPoint x="540" y="420" as="sourcePoint" />
            <mxPoint x="590" y="370" as="targetPoint" />
          </mxGeometry>
        </mxCell>
        <mxCell id="vWqEl1QQeqnEzlan9y9D-33" value="" style="endArrow=classic;html=1;fontSize=18;exitX=1;exitY=0.5;exitDx=0;exitDy=0;entryX=0;entryY=0.5;entryDx=0;entryDy=0;" parent="pEye7HAxy13Avmr5KGO8-1" source="vWqEl1QQeqnEzlan9y9D-14" target="vWqEl1QQeqnEzlan9y9D-15" edge="1">
          <mxGeometry width="50" height="50" relative="1" as="geometry">
            <mxPoint x="540" y="420" as="sourcePoint" />
            <mxPoint x="590" y="370" as="targetPoint" />
            <Array as="points">
              <mxPoint x="410" y="190" />
              <mxPoint x="410" y="290" />
            </Array>
          </mxGeometry>
        </mxCell>
        <mxCell id="vWqEl1QQeqnEzlan9y9D-34" value="\(BO^{(2)}_{1}\)" style="ellipse;whiteSpace=wrap;html=1;" parent="pEye7HAxy13Avmr5KGO8-1" vertex="1">
          <mxGeometry x="480" y="351" width="100" height="60" as="geometry" />
        </mxCell>
        <mxCell id="vWqEl1QQeqnEzlan9y9D-35" value="\(BO^{(2)}_{2}\)" style="ellipse;whiteSpace=wrap;html=1;" parent="pEye7HAxy13Avmr5KGO8-1" vertex="1">
          <mxGeometry x="480" y="441" width="100" height="60" as="geometry" />
        </mxCell>
        <mxCell id="vWqEl1QQeqnEzlan9y9D-36" value="\(BO^{(2)}_{2 T_{max}-1}\)" style="ellipse;whiteSpace=wrap;html=1;" parent="pEye7HAxy13Avmr5KGO8-1" vertex="1">
          <mxGeometry x="480" y="561" width="100" height="60" as="geometry" />
        </mxCell>
        <mxCell id="vWqEl1QQeqnEzlan9y9D-37" value="" style="endArrow=classic;html=1;fontSize=18;exitX=0.5;exitY=0;exitDx=0;exitDy=0;entryX=0.5;entryY=1;entryDx=0;entryDy=0;" parent="pEye7HAxy13Avmr5KGO8-1" source="vWqEl1QQeqnEzlan9y9D-34" target="vWqEl1QQeqnEzlan9y9D-15" edge="1">
          <mxGeometry width="50" height="50" relative="1" as="geometry">
            <mxPoint x="340" y="370" as="sourcePoint" />
            <mxPoint x="340" y="330" as="targetPoint" />
          </mxGeometry>
        </mxCell>
        <mxCell id="vWqEl1QQeqnEzlan9y9D-38" value="" style="endArrow=classic;html=1;fontSize=18;exitX=0.5;exitY=0;exitDx=0;exitDy=0;entryX=0.5;entryY=1;entryDx=0;entryDy=0;" parent="pEye7HAxy13Avmr5KGO8-1" source="vWqEl1QQeqnEzlan9y9D-35" target="vWqEl1QQeqnEzlan9y9D-34" edge="1">
          <mxGeometry width="50" height="50" relative="1" as="geometry">
            <mxPoint x="540" y="370" as="sourcePoint" />
            <mxPoint x="540" y="330" as="targetPoint" />
          </mxGeometry>
        </mxCell>
        <mxCell id="vWqEl1QQeqnEzlan9y9D-39" value="" style="endArrow=classic;html=1;fontSize=18;entryX=0.5;entryY=1;entryDx=0;entryDy=0;" parent="pEye7HAxy13Avmr5KGO8-1" edge="1">
          <mxGeometry width="50" height="50" relative="1" as="geometry">
            <mxPoint x="329.8299999999999" y="521" as="sourcePoint" />
            <mxPoint x="329.8299999999999" y="501" as="targetPoint" />
          </mxGeometry>
        </mxCell>
        <mxCell id="vWqEl1QQeqnEzlan9y9D-40" value="" style="endArrow=classic;html=1;fontSize=18;exitX=0.5;exitY=0;exitDx=0;exitDy=0;" parent="pEye7HAxy13Avmr5KGO8-1" edge="1">
          <mxGeometry width="50" height="50" relative="1" as="geometry">
            <mxPoint x="529.9200000000001" y="561" as="sourcePoint" />
            <mxPoint x="529.9200000000001" y="541" as="targetPoint" />
          </mxGeometry>
        </mxCell>
        <mxCell id="vWqEl1QQeqnEzlan9y9D-41" value="" style="endArrow=classic;html=1;fontSize=18;entryX=0.5;entryY=1;entryDx=0;entryDy=0;" parent="pEye7HAxy13Avmr5KGO8-1" edge="1">
          <mxGeometry width="50" height="50" relative="1" as="geometry">
            <mxPoint x="529.75" y="521" as="sourcePoint" />
            <mxPoint x="529.75" y="501" as="targetPoint" />
          </mxGeometry>
        </mxCell>
        <mxCell id="vWqEl1QQeqnEzlan9y9D-42" value="" style="endArrow=classic;html=1;fontSize=18;entryX=0;entryY=0.5;entryDx=0;entryDy=0;" parent="pEye7HAxy13Avmr5KGO8-1" target="vWqEl1QQeqnEzlan9y9D-34" edge="1">
          <mxGeometry width="50" height="50" relative="1" as="geometry">
            <mxPoint x="380" y="190" as="sourcePoint" />
            <mxPoint x="500" y="580" as="targetPoint" />
            <Array as="points">
              <mxPoint x="410" y="190" />
              <mxPoint x="410" y="381" />
            </Array>
          </mxGeometry>
        </mxCell>
        <mxCell id="vWqEl1QQeqnEzlan9y9D-43" value="" style="endArrow=classic;html=1;fontSize=18;entryX=0;entryY=0.5;entryDx=0;entryDy=0;exitX=1;exitY=0.5;exitDx=0;exitDy=0;" parent="pEye7HAxy13Avmr5KGO8-1" source="vWqEl1QQeqnEzlan9y9D-14" target="vWqEl1QQeqnEzlan9y9D-35" edge="1">
          <mxGeometry width="50" height="50" relative="1" as="geometry">
            <mxPoint x="390" y="200" as="sourcePoint" />
            <mxPoint x="490" y="400" as="targetPoint" />
            <Array as="points">
              <mxPoint x="410" y="190" />
              <mxPoint x="410" y="471" />
            </Array>
          </mxGeometry>
        </mxCell>
        <mxCell id="vWqEl1QQeqnEzlan9y9D-44" value="" style="endArrow=classic;html=1;fontSize=18;entryX=0;entryY=0.5;entryDx=0;entryDy=0;exitX=1;exitY=0.5;exitDx=0;exitDy=0;" parent="pEye7HAxy13Avmr5KGO8-1" source="vWqEl1QQeqnEzlan9y9D-14" target="vWqEl1QQeqnEzlan9y9D-36" edge="1">
          <mxGeometry width="50" height="50" relative="1" as="geometry">
            <mxPoint x="390" y="200" as="sourcePoint" />
            <mxPoint x="490" y="500" as="targetPoint" />
            <Array as="points">
              <mxPoint x="410" y="190" />
              <mxPoint x="410" y="591" />
            </Array>
          </mxGeometry>
        </mxCell>
        <mxCell id="vWqEl1QQeqnEzlan9y9D-45" value="" style="endArrow=classic;html=1;fontSize=18;exitX=0.5;exitY=0;exitDx=0;exitDy=0;entryX=0.5;entryY=1;entryDx=0;entryDy=0;" parent="pEye7HAxy13Avmr5KGO8-1" source="vWqEl1QQeqnEzlan9y9D-15" target="vWqEl1QQeqnEzlan9y9D-16" edge="1">
          <mxGeometry width="50" height="50" relative="1" as="geometry">
            <mxPoint x="340" y="270" as="sourcePoint" />
            <mxPoint x="340" y="230" as="targetPoint" />
          </mxGeometry>
        </mxCell>
        <mxCell id="vWqEl1QQeqnEzlan9y9D-46" value="" style="endArrow=classic;html=1;fontSize=18;exitX=1;exitY=0.5;exitDx=0;exitDy=0;" parent="pEye7HAxy13Avmr5KGO8-1" source="vWqEl1QQeqnEzlan9y9D-16" edge="1">
          <mxGeometry width="50" height="50" relative="1" as="geometry">
            <mxPoint x="540" y="270" as="sourcePoint" />
            <mxPoint x="620" y="190" as="targetPoint" />
          </mxGeometry>
        </mxCell>
        <mxCell id="vWqEl1QQeqnEzlan9y9D-47" value="\(BO^{(N+1)}_{2}\)" style="ellipse;whiteSpace=wrap;html=1;" parent="pEye7HAxy13Avmr5KGO8-1" vertex="1">
          <mxGeometry x="780" y="441" width="100" height="60" as="geometry" />
        </mxCell>
        <mxCell id="vWqEl1QQeqnEzlan9y9D-48" value="\(BO^{(N+1)}_{1}\)" style="ellipse;whiteSpace=wrap;html=1;" parent="pEye7HAxy13Avmr5KGO8-1" vertex="1">
          <mxGeometry x="780" y="351" width="100" height="60" as="geometry" />
        </mxCell>
        <mxCell id="vWqEl1QQeqnEzlan9y9D-49" value="" style="endArrow=classic;html=1;fontSize=18;exitX=1;exitY=0.5;exitDx=0;exitDy=0;entryX=0;entryY=0.5;entryDx=0;entryDy=0;" parent="pEye7HAxy13Avmr5KGO8-1" target="vWqEl1QQeqnEzlan9y9D-17" edge="1">
          <mxGeometry width="50" height="50" relative="1" as="geometry">
            <mxPoint x="660" y="190" as="sourcePoint" />
            <mxPoint x="760" y="290" as="targetPoint" />
            <Array as="points">
              <mxPoint x="690" y="190" />
              <mxPoint x="690" y="290" />
            </Array>
          </mxGeometry>
        </mxCell>
        <mxCell id="vWqEl1QQeqnEzlan9y9D-50" value="" style="endArrow=classic;html=1;fontSize=18;entryX=0;entryY=0.5;entryDx=0;entryDy=0;" parent="pEye7HAxy13Avmr5KGO8-1" target="vWqEl1QQeqnEzlan9y9D-48" edge="1">
          <mxGeometry width="50" height="50" relative="1" as="geometry">
            <mxPoint x="660" y="190" as="sourcePoint" />
            <mxPoint x="750" y="390" as="targetPoint" />
            <Array as="points">
              <mxPoint x="690" y="190" />
              <mxPoint x="690" y="381" />
            </Array>
          </mxGeometry>
        </mxCell>
        <mxCell id="vWqEl1QQeqnEzlan9y9D-51" value="" style="endArrow=classic;html=1;fontSize=18;entryX=0;entryY=0.5;entryDx=0;entryDy=0;" parent="pEye7HAxy13Avmr5KGO8-1" target="vWqEl1QQeqnEzlan9y9D-47" edge="1">
          <mxGeometry width="50" height="50" relative="1" as="geometry">
            <mxPoint x="660" y="190" as="sourcePoint" />
            <mxPoint x="770" y="400" as="targetPoint" />
            <Array as="points">
              <mxPoint x="690" y="190" />
              <mxPoint x="690" y="471" />
            </Array>
          </mxGeometry>
        </mxCell>
        <mxCell id="vWqEl1QQeqnEzlan9y9D-52" value="" style="endArrow=classic;html=1;fontSize=18;entryX=0;entryY=0.5;entryDx=0;entryDy=0;" parent="pEye7HAxy13Avmr5KGO8-1" target="vWqEl1QQeqnEzlan9y9D-21" edge="1">
          <mxGeometry width="50" height="50" relative="1" as="geometry">
            <mxPoint x="660" y="190" as="sourcePoint" />
            <mxPoint x="770" y="500" as="targetPoint" />
            <Array as="points">
              <mxPoint x="690" y="190" />
              <mxPoint x="690" y="591" />
            </Array>
          </mxGeometry>
        </mxCell>
        <mxCell id="vWqEl1QQeqnEzlan9y9D-53" value="\(p\)" style="text;html=1;align=center;verticalAlign=middle;resizable=0;points=[];autosize=1;fontSize=16;" parent="pEye7HAxy13Avmr5KGO8-1" vertex="1">
          <mxGeometry x="324" y="230" width="40" height="20" as="geometry" />
        </mxCell>
        <mxCell id="vWqEl1QQeqnEzlan9y9D-54" value="\(p\)" style="text;html=1;align=center;verticalAlign=middle;resizable=0;points=[];autosize=1;fontSize=16;" parent="pEye7HAxy13Avmr5KGO8-1" vertex="1">
          <mxGeometry x="525" y="230" width="40" height="20" as="geometry" />
        </mxCell>
        <mxCell id="vWqEl1QQeqnEzlan9y9D-55" value="\(p\)" style="text;html=1;align=center;verticalAlign=middle;resizable=0;points=[];autosize=1;fontSize=16;" parent="pEye7HAxy13Avmr5KGO8-1" vertex="1">
          <mxGeometry x="825" y="230" width="40" height="20" as="geometry" />
        </mxCell>
        <mxCell id="vWqEl1QQeqnEzlan9y9D-56" value="" style="endArrow=classic;html=1;fontSize=18;entryX=0.5;entryY=1;entryDx=0;entryDy=0;exitX=0.5;exitY=0;exitDx=0;exitDy=0;" parent="pEye7HAxy13Avmr5KGO8-1" source="vWqEl1QQeqnEzlan9y9D-17" target="vWqEl1QQeqnEzlan9y9D-18" edge="1">
          <mxGeometry width="50" height="50" relative="1" as="geometry">
            <mxPoint x="900" y="270" as="sourcePoint" />
            <mxPoint x="540" y="430" as="targetPoint" />
          </mxGeometry>
        </mxCell>
        <mxCell id="vWqEl1QQeqnEzlan9y9D-57" value="" style="endArrow=classic;html=1;fontSize=18;entryX=0.5;entryY=1;entryDx=0;entryDy=0;exitX=0.5;exitY=0;exitDx=0;exitDy=0;" parent="pEye7HAxy13Avmr5KGO8-1" source="vWqEl1QQeqnEzlan9y9D-48" target="vWqEl1QQeqnEzlan9y9D-17" edge="1">
          <mxGeometry width="50" height="50" relative="1" as="geometry">
            <mxPoint x="840" y="270" as="sourcePoint" />
            <mxPoint x="840" y="230" as="targetPoint" />
          </mxGeometry>
        </mxCell>
        <mxCell id="vWqEl1QQeqnEzlan9y9D-58" value="" style="endArrow=classic;html=1;fontSize=18;entryX=0.5;entryY=1;entryDx=0;entryDy=0;exitX=0.5;exitY=0;exitDx=0;exitDy=0;" parent="pEye7HAxy13Avmr5KGO8-1" source="vWqEl1QQeqnEzlan9y9D-47" target="vWqEl1QQeqnEzlan9y9D-48" edge="1">
          <mxGeometry width="50" height="50" relative="1" as="geometry">
            <mxPoint x="840" y="370" as="sourcePoint" />
            <mxPoint x="840" y="330" as="targetPoint" />
          </mxGeometry>
        </mxCell>
        <mxCell id="vWqEl1QQeqnEzlan9y9D-59" value="" style="endArrow=classic;html=1;fontSize=18;entryX=0.5;entryY=1;entryDx=0;entryDy=0;" parent="pEye7HAxy13Avmr5KGO8-1" target="vWqEl1QQeqnEzlan9y9D-47" edge="1">
          <mxGeometry width="50" height="50" relative="1" as="geometry">
            <mxPoint x="830" y="521" as="sourcePoint" />
            <mxPoint x="840" y="411" as="targetPoint" />
          </mxGeometry>
        </mxCell>
        <mxCell id="vWqEl1QQeqnEzlan9y9D-60" value="" style="endArrow=classic;html=1;fontSize=18;exitX=0.5;exitY=0;exitDx=0;exitDy=0;" parent="pEye7HAxy13Avmr5KGO8-1" source="vWqEl1QQeqnEzlan9y9D-21" edge="1">
          <mxGeometry width="50" height="50" relative="1" as="geometry">
            <mxPoint x="840" y="531" as="sourcePoint" />
            <mxPoint x="830" y="541" as="targetPoint" />
          </mxGeometry>
        </mxCell>
        <mxCell id="vWqEl1QQeqnEzlan9y9D-61" value="" style="endArrow=classic;html=1;fontSize=16;exitX=1;exitY=0.5;exitDx=0;exitDy=0;entryX=0;entryY=0.5;entryDx=0;entryDy=0;" parent="pEye7HAxy13Avmr5KGO8-1" source="vWqEl1QQeqnEzlan9y9D-18" target="vWqEl1QQeqnEzlan9y9D-13" edge="1">
          <mxGeometry width="50" height="50" relative="1" as="geometry">
            <mxPoint x="590" y="400" as="sourcePoint" />
            <mxPoint x="980" y="410" as="targetPoint" />
            <Array as="points">
              <mxPoint x="920" y="190" />
              <mxPoint x="920" y="640" />
              <mxPoint x="160" y="640" />
              <mxPoint x="160" y="320" />
              <mxPoint x="40" y="320" />
              <mxPoint x="40" y="190" />
            </Array>
          </mxGeometry>
        </mxCell>
        <mxCell id="vWqEl1QQeqnEzlan9y9D-62" value="\(1\)" style="text;html=1;align=center;verticalAlign=middle;resizable=0;points=[];autosize=1;fontSize=16;" parent="pEye7HAxy13Avmr5KGO8-1" vertex="1">
          <mxGeometry x="324" y="327" width="40" height="20" as="geometry" />
        </mxCell>
        <mxCell id="vWqEl1QQeqnEzlan9y9D-63" value="\(1\)" style="text;html=1;align=center;verticalAlign=middle;resizable=0;points=[];autosize=1;fontSize=16;" parent="pEye7HAxy13Avmr5KGO8-1" vertex="1">
          <mxGeometry x="324" y="416" width="40" height="20" as="geometry" />
        </mxCell>
        <mxCell id="vWqEl1QQeqnEzlan9y9D-64" value="\(1\)" style="text;html=1;align=center;verticalAlign=middle;resizable=0;points=[];autosize=1;fontSize=16;" parent="pEye7HAxy13Avmr5KGO8-1" vertex="1">
          <mxGeometry x="324" y="505" width="40" height="20" as="geometry" />
        </mxCell>
        <mxCell id="vWqEl1QQeqnEzlan9y9D-65" value="\(1\)" style="text;html=1;align=center;verticalAlign=middle;resizable=0;points=[];autosize=1;fontSize=16;" parent="pEye7HAxy13Avmr5KGO8-1" vertex="1">
          <mxGeometry x="324" y="541" width="40" height="20" as="geometry" />
        </mxCell>
        <mxCell id="vWqEl1QQeqnEzlan9y9D-66" value="\(1\)" style="text;html=1;align=center;verticalAlign=middle;resizable=0;points=[];autosize=1;fontSize=16;" parent="pEye7HAxy13Avmr5KGO8-1" vertex="1">
          <mxGeometry x="525" y="541" width="40" height="20" as="geometry" />
        </mxCell>
        <mxCell id="vWqEl1QQeqnEzlan9y9D-67" value="\(1\)" style="text;html=1;align=center;verticalAlign=middle;resizable=0;points=[];autosize=1;fontSize=16;" parent="pEye7HAxy13Avmr5KGO8-1" vertex="1">
          <mxGeometry x="525" y="505" width="40" height="20" as="geometry" />
        </mxCell>
        <mxCell id="vWqEl1QQeqnEzlan9y9D-68" value="\(1\)" style="text;html=1;align=center;verticalAlign=middle;resizable=0;points=[];autosize=1;fontSize=16;" parent="pEye7HAxy13Avmr5KGO8-1" vertex="1">
          <mxGeometry x="525" y="416" width="40" height="20" as="geometry" />
        </mxCell>
        <mxCell id="vWqEl1QQeqnEzlan9y9D-69" value="\(1\)" style="text;html=1;align=center;verticalAlign=middle;resizable=0;points=[];autosize=1;fontSize=16;" parent="pEye7HAxy13Avmr5KGO8-1" vertex="1">
          <mxGeometry x="525" y="327" width="40" height="20" as="geometry" />
        </mxCell>
        <mxCell id="vWqEl1QQeqnEzlan9y9D-70" value="\(1\)" style="text;html=1;align=center;verticalAlign=middle;resizable=0;points=[];autosize=1;fontSize=16;" parent="pEye7HAxy13Avmr5KGO8-1" vertex="1">
          <mxGeometry x="825" y="539" width="40" height="20" as="geometry" />
        </mxCell>
        <mxCell id="vWqEl1QQeqnEzlan9y9D-71" value="\(1\)" style="text;html=1;align=center;verticalAlign=middle;resizable=0;points=[];autosize=1;fontSize=16;" parent="pEye7HAxy13Avmr5KGO8-1" vertex="1">
          <mxGeometry x="825" y="505" width="40" height="20" as="geometry" />
        </mxCell>
        <mxCell id="vWqEl1QQeqnEzlan9y9D-72" value="\(1\)" style="text;html=1;align=center;verticalAlign=middle;resizable=0;points=[];autosize=1;fontSize=16;" parent="pEye7HAxy13Avmr5KGO8-1" vertex="1">
          <mxGeometry x="825" y="416" width="40" height="20" as="geometry" />
        </mxCell>
        <mxCell id="vWqEl1QQeqnEzlan9y9D-73" value="\(1\)" style="text;html=1;align=center;verticalAlign=middle;resizable=0;points=[];autosize=1;fontSize=16;" parent="pEye7HAxy13Avmr5KGO8-1" vertex="1">
          <mxGeometry x="825" y="327" width="40" height="20" as="geometry" />
        </mxCell>
        <mxCell id="vWqEl1QQeqnEzlan9y9D-74" value="" style="endArrow=classic;html=1;fontSize=16;exitX=0;exitY=0;exitDx=0;exitDy=0;" parent="pEye7HAxy13Avmr5KGO8-1" source="vWqEl1QQeqnEzlan9y9D-12" target="vWqEl1QQeqnEzlan9y9D-19" edge="1">
          <mxGeometry width="50" height="50" relative="1" as="geometry">
            <mxPoint x="520" y="360" as="sourcePoint" />
            <mxPoint x="570" y="310" as="targetPoint" />
            <Array as="points">
              <mxPoint x="260" y="260" />
              <mxPoint x="260" y="150" />
            </Array>
          </mxGeometry>
        </mxCell>
        <mxCell id="vWqEl1QQeqnEzlan9y9D-75" value="" style="endArrow=classic;html=1;fontSize=16;" parent="pEye7HAxy13Avmr5KGO8-1" source="vWqEl1QQeqnEzlan9y9D-15" target="vWqEl1QQeqnEzlan9y9D-19" edge="1">
          <mxGeometry width="50" height="50" relative="1" as="geometry">
            <mxPoint x="472.14466094067575" y="249.99679656440546" as="sourcePoint" />
            <mxPoint x="470" y="130" as="targetPoint" />
            <Array as="points">
              <mxPoint x="460" y="260" />
              <mxPoint x="460" y="150" />
            </Array>
          </mxGeometry>
        </mxCell>
        <mxCell id="vWqEl1QQeqnEzlan9y9D-76" value="" style="endArrow=classic;html=1;fontSize=16;" parent="pEye7HAxy13Avmr5KGO8-1" source="vWqEl1QQeqnEzlan9y9D-17" target="vWqEl1QQeqnEzlan9y9D-19" edge="1">
          <mxGeometry width="50" height="50" relative="1" as="geometry">
            <mxPoint x="799.2382121546409" y="276.3261232134535" as="sourcePoint" />
            <mxPoint x="800.9521573216764" y="100.0023279294165" as="targetPoint" />
            <Array as="points">
              <mxPoint x="760" y="260" />
              <mxPoint x="760" y="150" />
            </Array>
          </mxGeometry>
        </mxCell>
        <mxCell id="vWqEl1QQeqnEzlan9y9D-77" value="\(1-p\)" style="text;html=1;align=center;verticalAlign=middle;resizable=0;points=[];autosize=1;fontSize=16;" parent="pEye7HAxy13Avmr5KGO8-1" vertex="1">
          <mxGeometry x="706" y="120" width="60" height="20" as="geometry" />
        </mxCell>
        <mxCell id="vWqEl1QQeqnEzlan9y9D-78" value="\(1-p\)" style="text;html=1;align=center;verticalAlign=middle;resizable=0;points=[];autosize=1;fontSize=16;" parent="pEye7HAxy13Avmr5KGO8-1" vertex="1">
          <mxGeometry x="400" y="140" width="60" height="20" as="geometry" />
        </mxCell>
        <mxCell id="vWqEl1QQeqnEzlan9y9D-79" value="\(1-p\)" style="text;html=1;align=center;verticalAlign=middle;resizable=0;points=[];autosize=1;fontSize=16;" parent="pEye7HAxy13Avmr5KGO8-1" vertex="1">
          <mxGeometry x="250" y="120" width="60" height="20" as="geometry" />
        </mxCell>
        <mxCell id="vWqEl1QQeqnEzlan9y9D-80" value="\(...\)" style="text;html=1;align=center;verticalAlign=middle;resizable=0;points=[];autosize=1;fontSize=16;" parent="pEye7HAxy13Avmr5KGO8-1" vertex="1">
          <mxGeometry x="615" y="180" width="50" height="20" as="geometry" />
        </mxCell>
        <mxCell id="vWqEl1QQeqnEzlan9y9D-81" value="\(...\)" style="text;html=1;align=center;verticalAlign=middle;resizable=0;points=[];autosize=1;fontSize=13;" parent="pEye7HAxy13Avmr5KGO8-1" vertex="1">
          <mxGeometry x="310" y="519" width="40" height="20" as="geometry" />
        </mxCell>
        <mxCell id="vWqEl1QQeqnEzlan9y9D-82" value="\(...\)" style="text;html=1;align=center;verticalAlign=middle;resizable=0;points=[];autosize=1;fontSize=13;" parent="pEye7HAxy13Avmr5KGO8-1" vertex="1">
          <mxGeometry x="510" y="519" width="40" height="20" as="geometry" />
        </mxCell>
        <mxCell id="vWqEl1QQeqnEzlan9y9D-83" value="\(...\)" style="text;html=1;align=center;verticalAlign=middle;resizable=0;points=[];autosize=1;fontSize=13;" parent="pEye7HAxy13Avmr5KGO8-1" vertex="1">
          <mxGeometry x="810" y="519" width="40" height="20" as="geometry" />
        </mxCell>
        <mxCell id="vWqEl1QQeqnEzlan9y9D-84" value="" style="endArrow=classic;html=1;fontSize=13;exitX=0;exitY=0.5;exitDx=0;exitDy=0;entryX=0.5;entryY=0;entryDx=0;entryDy=0;" parent="pEye7HAxy13Avmr5KGO8-1" source="vWqEl1QQeqnEzlan9y9D-19" target="vWqEl1QQeqnEzlan9y9D-13" edge="1">
          <mxGeometry width="50" height="50" relative="1" as="geometry">
            <mxPoint x="380" y="360" as="sourcePoint" />
            <mxPoint x="430" y="310" as="targetPoint" />
            <Array as="points">
              <mxPoint x="130" y="105" />
            </Array>
          </mxGeometry>
        </mxCell>
        <mxCell id="vWqEl1QQeqnEzlan9y9D-85" value="\(1\)" style="text;html=1;align=center;verticalAlign=middle;resizable=0;points=[];autosize=1;fontSize=16;" parent="pEye7HAxy13Avmr5KGO8-1" vertex="1">
          <mxGeometry x="240" y="80" width="40" height="20" as="geometry" />
        </mxCell>
        <mxCell id="vWqEl1QQeqnEzlan9y9D-86" value="\(1\)" style="text;html=1;align=center;verticalAlign=middle;resizable=0;points=[];autosize=1;fontSize=16;" parent="pEye7HAxy13Avmr5KGO8-1" vertex="1">
          <mxGeometry x="883" y="165" width="40" height="20" as="geometry" />
        </mxCell>
        <mxCell id="vWqEl1QQeqnEzlan9y9D-87" value="" style="endArrow=classic;html=1;fontSize=13;curved=1;exitX=0.701;exitY=0.967;exitDx=0;exitDy=0;exitPerimeter=0;" parent="pEye7HAxy13Avmr5KGO8-1" source="vWqEl1QQeqnEzlan9y9D-13" target="vWqEl1QQeqnEzlan9y9D-13" edge="1">
          <mxGeometry width="50" height="50" relative="1" as="geometry">
            <mxPoint x="90" y="270" as="sourcePoint" />
            <mxPoint x="100" y="280" as="targetPoint" />
            <Array as="points">
              <mxPoint x="160" y="240" />
              <mxPoint x="130" y="260" />
              <mxPoint x="100" y="240" />
            </Array>
          </mxGeometry>
        </mxCell>
        <mxCell id="vWqEl1QQeqnEzlan9y9D-88" value="\(1-p_a\)" style="text;html=1;align=center;verticalAlign=middle;resizable=0;points=[];autosize=1;fontSize=16;" parent="pEye7HAxy13Avmr5KGO8-1" vertex="1">
          <mxGeometry x="89" y="258" width="80" height="20" as="geometry" />
        </mxCell>
      </root>
    </mxGraphModel>
  </diagram>
  <diagram id="uxsoi5UyH0z5oamePg9I" name="simulator state machine">
    <mxGraphModel dx="744" dy="422" grid="1" gridSize="10" guides="1" tooltips="1" connect="1" arrows="1" fold="1" page="1" pageScale="1" pageWidth="1169" pageHeight="827" math="0" shadow="0">
      <root>
        <mxCell id="zwSuE4B20JHZ0nloVQcf-0" />
        <mxCell id="zwSuE4B20JHZ0nloVQcf-1" parent="zwSuE4B20JHZ0nloVQcf-0" />
        <mxCell id="zwSuE4B20JHZ0nloVQcf-2" value="IDLE" style="rounded=1;whiteSpace=wrap;html=1;fontSize=18;fontFamily=Computer Modern;" parent="zwSuE4B20JHZ0nloVQcf-1" vertex="1">
          <mxGeometry x="190" y="360" width="80" height="40" as="geometry" />
        </mxCell>
        <mxCell id="zwSuE4B20JHZ0nloVQcf-3" value="BO" style="rounded=1;whiteSpace=wrap;html=1;fontSize=18;fontFamily=Computer Modern;" parent="zwSuE4B20JHZ0nloVQcf-1" vertex="1">
          <mxGeometry x="360" y="360" width="80" height="40" as="geometry" />
        </mxCell>
        <mxCell id="zwSuE4B20JHZ0nloVQcf-4" value="DATA" style="rounded=1;whiteSpace=wrap;html=1;fontSize=18;fontFamily=Computer Modern;" parent="zwSuE4B20JHZ0nloVQcf-1" vertex="1">
          <mxGeometry x="510" y="360" width="80" height="40" as="geometry" />
        </mxCell>
        <mxCell id="zwSuE4B20JHZ0nloVQcf-5" value="OUT" style="rounded=1;whiteSpace=wrap;html=1;fontSize=18;fontFamily=Computer Modern;" parent="zwSuE4B20JHZ0nloVQcf-1" vertex="1">
          <mxGeometry x="690" y="360" width="80" height="40" as="geometry" />
        </mxCell>
        <mxCell id="zwSuE4B20JHZ0nloVQcf-6" value="FAILURE" style="rounded=1;whiteSpace=wrap;html=1;fontSize=18;fillColor=#f8cecc;strokeColor=#b85450;fontFamily=Computer Modern;" parent="zwSuE4B20JHZ0nloVQcf-1" vertex="1">
          <mxGeometry x="430" y="242" width="100" height="40" as="geometry" />
        </mxCell>
        <mxCell id="zwSuE4B20JHZ0nloVQcf-7" value="ACK" style="rounded=1;whiteSpace=wrap;html=1;fontSize=18;fontFamily=Computer Modern;" parent="zwSuE4B20JHZ0nloVQcf-1" vertex="1">
          <mxGeometry x="500" y="453" width="80" height="40" as="geometry" />
        </mxCell>
        <mxCell id="zwSuE4B20JHZ0nloVQcf-8" value="SUCCESS" style="rounded=1;whiteSpace=wrap;html=1;fontSize=18;fillColor=#d5e8d4;strokeColor=#82b366;fontFamily=Computer Modern;" parent="zwSuE4B20JHZ0nloVQcf-1" vertex="1">
          <mxGeometry x="180" y="453" width="100" height="40" as="geometry" />
        </mxCell>
        <mxCell id="zwSuE4B20JHZ0nloVQcf-9" value="" style="endArrow=classic;html=1;strokeColor=#000000;fontSize=13;exitX=1;exitY=0.5;exitDx=0;exitDy=0;" parent="zwSuE4B20JHZ0nloVQcf-1" source="zwSuE4B20JHZ0nloVQcf-2" target="zwSuE4B20JHZ0nloVQcf-3" edge="1">
          <mxGeometry width="50" height="50" relative="1" as="geometry">
            <mxPoint x="460" y="450" as="sourcePoint" />
            <mxPoint x="510" y="400" as="targetPoint" />
          </mxGeometry>
        </mxCell>
        <mxCell id="zwSuE4B20JHZ0nloVQcf-10" value="" style="endArrow=classic;html=1;strokeColor=#000000;fontSize=13;exitX=1;exitY=0.5;exitDx=0;exitDy=0;" parent="zwSuE4B20JHZ0nloVQcf-1" source="zwSuE4B20JHZ0nloVQcf-3" target="zwSuE4B20JHZ0nloVQcf-4" edge="1">
          <mxGeometry width="50" height="50" relative="1" as="geometry">
            <mxPoint x="460" y="450" as="sourcePoint" />
            <mxPoint x="510" y="400" as="targetPoint" />
          </mxGeometry>
        </mxCell>
        <mxCell id="zwSuE4B20JHZ0nloVQcf-11" value="" style="endArrow=classic;html=1;strokeColor=#000000;fontSize=13;exitX=1;exitY=0.5;exitDx=0;exitDy=0;" parent="zwSuE4B20JHZ0nloVQcf-1" source="zwSuE4B20JHZ0nloVQcf-4" target="zwSuE4B20JHZ0nloVQcf-5" edge="1">
          <mxGeometry width="50" height="50" relative="1" as="geometry">
            <mxPoint x="460" y="450" as="sourcePoint" />
            <mxPoint x="510" y="400" as="targetPoint" />
          </mxGeometry>
        </mxCell>
        <mxCell id="zwSuE4B20JHZ0nloVQcf-12" value="" style="endArrow=classic;html=1;strokeColor=#000000;fontSize=13;" parent="zwSuE4B20JHZ0nloVQcf-1" source="zwSuE4B20JHZ0nloVQcf-5" target="zwSuE4B20JHZ0nloVQcf-7" edge="1">
          <mxGeometry width="50" height="50" relative="1" as="geometry">
            <mxPoint x="460" y="450" as="sourcePoint" />
            <mxPoint x="510" y="400" as="targetPoint" />
            <Array as="points">
              <mxPoint x="730" y="473" />
            </Array>
          </mxGeometry>
        </mxCell>
        <mxCell id="zwSuE4B20JHZ0nloVQcf-13" value="" style="endArrow=classic;html=1;strokeColor=#000000;fontSize=13;exitX=0.5;exitY=0;exitDx=0;exitDy=0;" parent="zwSuE4B20JHZ0nloVQcf-1" source="zwSuE4B20JHZ0nloVQcf-5" target="zwSuE4B20JHZ0nloVQcf-3" edge="1">
          <mxGeometry width="50" height="50" relative="1" as="geometry">
            <mxPoint x="610" y="390.0000000000001" as="sourcePoint" />
            <mxPoint x="690" y="390.0000000000001" as="targetPoint" />
            <Array as="points">
              <mxPoint x="730" y="320" />
              <mxPoint x="400" y="320" />
            </Array>
          </mxGeometry>
        </mxCell>
        <mxCell id="zwSuE4B20JHZ0nloVQcf-14" value="" style="endArrow=classic;html=1;strokeColor=#000000;fontSize=13;exitX=1;exitY=0.5;exitDx=0;exitDy=0;" parent="zwSuE4B20JHZ0nloVQcf-1" source="zwSuE4B20JHZ0nloVQcf-5" target="zwSuE4B20JHZ0nloVQcf-6" edge="1">
          <mxGeometry width="50" height="50" relative="1" as="geometry">
            <mxPoint x="610" y="390.0000000000001" as="sourcePoint" />
            <mxPoint x="690" y="390.0000000000001" as="targetPoint" />
            <Array as="points">
              <mxPoint x="790" y="380" />
              <mxPoint x="790" y="260" />
            </Array>
          </mxGeometry>
        </mxCell>
        <mxCell id="zwSuE4B20JHZ0nloVQcf-15" value="" style="endArrow=classic;html=1;strokeColor=#000000;fontSize=13;exitX=0;exitY=0.5;exitDx=0;exitDy=0;" parent="zwSuE4B20JHZ0nloVQcf-1" source="zwSuE4B20JHZ0nloVQcf-7" target="zwSuE4B20JHZ0nloVQcf-8" edge="1">
          <mxGeometry width="50" height="50" relative="1" as="geometry">
            <mxPoint x="450" y="383.0000000000001" as="sourcePoint" />
            <mxPoint x="530" y="383.0000000000001" as="targetPoint" />
          </mxGeometry>
        </mxCell>
        <mxCell id="zwSuE4B20JHZ0nloVQcf-16" value="" style="endArrow=classic;html=1;fontSize=13;exitX=0.5;exitY=0;exitDx=0;exitDy=0;fillColor=#008a00;" parent="zwSuE4B20JHZ0nloVQcf-1" source="zwSuE4B20JHZ0nloVQcf-8" target="zwSuE4B20JHZ0nloVQcf-2" edge="1">
          <mxGeometry width="50" height="50" relative="1" as="geometry">
            <mxPoint x="460" y="450" as="sourcePoint" />
            <mxPoint x="510" y="400" as="targetPoint" />
          </mxGeometry>
        </mxCell>
        <mxCell id="zwSuE4B20JHZ0nloVQcf-17" value="" style="endArrow=classic;html=1;fontSize=13;exitX=0;exitY=0.5;exitDx=0;exitDy=0;fillColor=#a20025;" parent="zwSuE4B20JHZ0nloVQcf-1" source="zwSuE4B20JHZ0nloVQcf-6" target="zwSuE4B20JHZ0nloVQcf-2" edge="1">
          <mxGeometry width="50" height="50" relative="1" as="geometry">
            <mxPoint x="250" y="470" as="sourcePoint" />
            <mxPoint x="250" y="410.0000000000001" as="targetPoint" />
            <Array as="points">
              <mxPoint x="230" y="262" />
            </Array>
          </mxGeometry>
        </mxCell>
        <mxCell id="zwSuE4B20JHZ0nloVQcf-18" value="" style="endArrow=classic;html=1;strokeColor=#000000;fontSize=13;exitX=0;exitY=0.75;exitDx=0;exitDy=0;entryX=0;entryY=0.25;entryDx=0;entryDy=0;" parent="zwSuE4B20JHZ0nloVQcf-1" source="zwSuE4B20JHZ0nloVQcf-2" target="zwSuE4B20JHZ0nloVQcf-2" edge="1">
          <mxGeometry width="50" height="50" relative="1" as="geometry">
            <mxPoint x="448" y="450" as="sourcePoint" />
            <mxPoint x="138" y="370" as="targetPoint" />
            <Array as="points">
              <mxPoint x="158" y="390" />
              <mxPoint x="158" y="370" />
            </Array>
          </mxGeometry>
        </mxCell>
        <mxCell id="zwSuE4B20JHZ0nloVQcf-19" value="Has no data" style="text;html=1;align=center;verticalAlign=middle;resizable=0;points=[];autosize=1;fontSize=16;fontFamily=Computer Modern;" parent="zwSuE4B20JHZ0nloVQcf-1" vertex="1">
          <mxGeometry x="90" y="347" width="90" height="20" as="geometry" />
        </mxCell>
        <mxCell id="zwSuE4B20JHZ0nloVQcf-20" value="Has data" style="text;html=1;align=center;verticalAlign=middle;resizable=0;points=[];autosize=1;fontSize=16;fontFamily=Computer Modern;" parent="zwSuE4B20JHZ0nloVQcf-1" vertex="1">
          <mxGeometry x="280" y="359" width="70" height="20" as="geometry" />
        </mxCell>
        <mxCell id="zwSuE4B20JHZ0nloVQcf-21" value="Backoff&lt;br style=&quot;font-size: 16px;&quot;&gt;finished" style="text;html=1;align=center;verticalAlign=middle;resizable=0;points=[];autosize=1;fontSize=16;fontFamily=Computer Modern;" parent="zwSuE4B20JHZ0nloVQcf-1" vertex="1">
          <mxGeometry x="440" y="339" width="70" height="40" as="geometry" />
        </mxCell>
        <mxCell id="zwSuE4B20JHZ0nloVQcf-22" value="DATA &lt;br style=&quot;font-size: 16px;&quot;&gt;transmitted" style="text;html=1;align=center;verticalAlign=middle;resizable=0;points=[];autosize=1;fontSize=16;fontFamily=Computer Modern;" parent="zwSuE4B20JHZ0nloVQcf-1" vertex="1">
          <mxGeometry x="590" y="339" width="90" height="40" as="geometry" />
        </mxCell>
        <mxCell id="zwSuE4B20JHZ0nloVQcf-23" value="Acknowledgment&amp;nbsp;&lt;br style=&quot;font-size: 16px&quot;&gt;arrived" style="text;html=1;align=center;verticalAlign=middle;resizable=0;points=[];autosize=1;fontSize=16;fontFamily=Computer Modern;" parent="zwSuE4B20JHZ0nloVQcf-1" vertex="1">
          <mxGeometry x="590" y="430" width="130" height="40" as="geometry" />
        </mxCell>
        <mxCell id="zwSuE4B20JHZ0nloVQcf-24" value="DATA transmitted successfully" style="text;html=1;align=center;verticalAlign=middle;resizable=0;points=[];autosize=1;fontSize=16;fontFamily=Computer Modern;" parent="zwSuE4B20JHZ0nloVQcf-1" vertex="1">
          <mxGeometry x="284" y="450" width="210" height="20" as="geometry" />
        </mxCell>
        <mxCell id="zwSuE4B20JHZ0nloVQcf-25" value="Acknowledgment not arrived" style="text;html=1;align=center;verticalAlign=middle;resizable=0;points=[];autosize=1;fontSize=16;fontFamily=Computer Modern;" parent="zwSuE4B20JHZ0nloVQcf-1" vertex="1">
          <mxGeometry x="468" y="296" width="200" height="20" as="geometry" />
        </mxCell>
        <mxCell id="zwSuE4B20JHZ0nloVQcf-26" value="DATA retransmissions limit exceeded" style="text;html=1;align=center;verticalAlign=middle;resizable=0;points=[];autosize=1;fontSize=16;fontFamily=Computer Modern;" parent="zwSuE4B20JHZ0nloVQcf-1" vertex="1">
          <mxGeometry x="534" y="240" width="260" height="20" as="geometry" />
        </mxCell>
        <mxCell id="zwSuE4B20JHZ0nloVQcf-27" value="Cycle ended, go to IDLE" style="text;html=1;align=center;verticalAlign=middle;resizable=0;points=[];autosize=1;fontSize=16;fontFamily=Computer Modern;" parent="zwSuE4B20JHZ0nloVQcf-1" vertex="1">
          <mxGeometry x="240" y="240" width="180" height="20" as="geometry" />
        </mxCell>
        <mxCell id="zwSuE4B20JHZ0nloVQcf-28" value="Cycle ended,&lt;br style=&quot;font-size: 16px;&quot;&gt;go to IDLE" style="text;html=1;align=center;verticalAlign=middle;resizable=0;points=[];autosize=1;fontSize=16;fontFamily=Computer Modern;" parent="zwSuE4B20JHZ0nloVQcf-1" vertex="1">
          <mxGeometry x="127" y="405" width="100" height="40" as="geometry" />
        </mxCell>
      </root>
    </mxGraphModel>
  </diagram>
  <diagram name="simulator state machine csma/ca" id="VU0dMkt4x2wjIKHVKIP8">
    <mxGraphModel dx="744" dy="422" grid="0" gridSize="10" guides="1" tooltips="1" connect="1" arrows="1" fold="1" page="1" pageScale="1" pageWidth="1169" pageHeight="827" background="none" math="0" shadow="0">
      <root>
        <mxCell id="QKKG4YhLjccbSQniPl94-0" />
        <mxCell id="QKKG4YhLjccbSQniPl94-1" parent="QKKG4YhLjccbSQniPl94-0" />
        <mxCell id="QKKG4YhLjccbSQniPl94-2" value="IDLE" style="rounded=1;whiteSpace=wrap;html=1;fontSize=18;fontFamily=Computer Modern;" parent="QKKG4YhLjccbSQniPl94-1" vertex="1">
          <mxGeometry x="190" y="360" width="80" height="40" as="geometry" />
        </mxCell>
        <mxCell id="QKKG4YhLjccbSQniPl94-3" value="BO" style="rounded=1;whiteSpace=wrap;html=1;fontSize=18;fontFamily=Computer Modern;" parent="QKKG4YhLjccbSQniPl94-1" vertex="1">
          <mxGeometry x="407" y="360" width="80" height="40" as="geometry" />
        </mxCell>
        <mxCell id="QKKG4YhLjccbSQniPl94-4" value="RTS" style="rounded=1;whiteSpace=wrap;html=1;fontSize=18;fontFamily=Computer Modern;" parent="QKKG4YhLjccbSQniPl94-1" vertex="1">
          <mxGeometry x="660" y="359" width="80" height="40" as="geometry" />
        </mxCell>
        <mxCell id="QKKG4YhLjccbSQniPl94-5" value="OUT" style="rounded=1;whiteSpace=wrap;html=1;fontSize=18;fontFamily=Computer Modern;" parent="QKKG4YhLjccbSQniPl94-1" vertex="1">
          <mxGeometry x="885" y="360" width="80" height="40" as="geometry" />
        </mxCell>
        <mxCell id="QKKG4YhLjccbSQniPl94-6" value="FAILURE" style="rounded=1;whiteSpace=wrap;html=1;fontSize=18;fillColor=#f8cecc;strokeColor=#b85450;fontFamily=Computer Modern;" parent="QKKG4YhLjccbSQniPl94-1" vertex="1">
          <mxGeometry x="438" y="220" width="100" height="40" as="geometry" />
        </mxCell>
        <mxCell id="QKKG4YhLjccbSQniPl94-7" value="ACK" style="rounded=1;whiteSpace=wrap;html=1;fontSize=18;fontFamily=Computer Modern;" parent="QKKG4YhLjccbSQniPl94-1" vertex="1">
          <mxGeometry x="438" y="479" width="80" height="40" as="geometry" />
        </mxCell>
        <mxCell id="QKKG4YhLjccbSQniPl94-8" value="SUCCESS" style="rounded=1;whiteSpace=wrap;html=1;fontSize=18;fillColor=#d5e8d4;strokeColor=#82b366;fontFamily=Computer Modern;" parent="QKKG4YhLjccbSQniPl94-1" vertex="1">
          <mxGeometry x="180" y="479" width="100" height="40" as="geometry" />
        </mxCell>
        <mxCell id="QKKG4YhLjccbSQniPl94-9" value="" style="endArrow=classic;html=1;strokeColor=#000000;fontSize=13;exitX=1;exitY=0.5;exitDx=0;exitDy=0;" parent="QKKG4YhLjccbSQniPl94-1" source="QKKG4YhLjccbSQniPl94-2" target="QKKG4YhLjccbSQniPl94-3" edge="1">
          <mxGeometry width="50" height="50" relative="1" as="geometry">
            <mxPoint x="460" y="450" as="sourcePoint" />
            <mxPoint x="510" y="400" as="targetPoint" />
          </mxGeometry>
        </mxCell>
        <mxCell id="QKKG4YhLjccbSQniPl94-10" value="" style="endArrow=classic;html=1;strokeColor=#000000;fontSize=13;exitX=0.5;exitY=1;exitDx=0;exitDy=0;" parent="QKKG4YhLjccbSQniPl94-1" source="QKKG4YhLjccbSQniPl94-3" edge="1">
          <mxGeometry width="50" height="50" relative="1" as="geometry">
            <mxPoint x="460" y="450" as="sourcePoint" />
            <mxPoint x="700" y="400" as="targetPoint" />
            <Array as="points">
              <mxPoint x="447" y="430" />
              <mxPoint x="550" y="430" />
              <mxPoint x="700" y="430" />
            </Array>
          </mxGeometry>
        </mxCell>
        <mxCell id="QKKG4YhLjccbSQniPl94-11" value="" style="endArrow=classic;html=1;strokeColor=#000000;fontSize=13;exitX=1;exitY=0.5;exitDx=0;exitDy=0;" parent="QKKG4YhLjccbSQniPl94-1" source="QKKG4YhLjccbSQniPl94-4" target="QKKG4YhLjccbSQniPl94-5" edge="1">
          <mxGeometry width="50" height="50" relative="1" as="geometry">
            <mxPoint x="460" y="450" as="sourcePoint" />
            <mxPoint x="510" y="400" as="targetPoint" />
          </mxGeometry>
        </mxCell>
        <mxCell id="QKKG4YhLjccbSQniPl94-12" value="" style="endArrow=classic;html=1;strokeColor=#000000;fontSize=13;entryX=1;entryY=0.5;entryDx=0;entryDy=0;" parent="QKKG4YhLjccbSQniPl94-1" source="QKKG4YhLjccbSQniPl94-5" target="uOPqNuqm2HrXPGvBYKWC-11" edge="1">
          <mxGeometry width="50" height="50" relative="1" as="geometry">
            <mxPoint x="655" y="450" as="sourcePoint" />
            <mxPoint x="775" y="473" as="targetPoint" />
            <Array as="points">
              <mxPoint x="925" y="499" />
            </Array>
          </mxGeometry>
        </mxCell>
        <mxCell id="QKKG4YhLjccbSQniPl94-13" value="" style="endArrow=classic;html=1;strokeColor=#000000;fontSize=13;exitX=0.5;exitY=0;exitDx=0;exitDy=0;entryX=0.25;entryY=0;entryDx=0;entryDy=0;" parent="QKKG4YhLjccbSQniPl94-1" source="QKKG4YhLjccbSQniPl94-5" target="QKKG4YhLjccbSQniPl94-3" edge="1">
          <mxGeometry width="50" height="50" relative="1" as="geometry">
            <mxPoint x="805" y="390.0000000000001" as="sourcePoint" />
            <mxPoint x="400" y="350" as="targetPoint" />
            <Array as="points">
              <mxPoint x="925" y="290" />
              <mxPoint x="620" y="290" />
              <mxPoint x="427" y="290" />
            </Array>
          </mxGeometry>
        </mxCell>
        <mxCell id="QKKG4YhLjccbSQniPl94-14" value="" style="endArrow=classic;html=1;strokeColor=#000000;fontSize=13;exitX=1;exitY=0.5;exitDx=0;exitDy=0;entryX=1;entryY=0.5;entryDx=0;entryDy=0;" parent="QKKG4YhLjccbSQniPl94-1" source="QKKG4YhLjccbSQniPl94-5" target="QKKG4YhLjccbSQniPl94-6" edge="1">
          <mxGeometry width="50" height="50" relative="1" as="geometry">
            <mxPoint x="805" y="390.0000000000001" as="sourcePoint" />
            <mxPoint x="725" y="261.67741935483866" as="targetPoint" />
            <Array as="points">
              <mxPoint x="985" y="380" />
              <mxPoint x="985" y="240" />
            </Array>
          </mxGeometry>
        </mxCell>
        <mxCell id="QKKG4YhLjccbSQniPl94-15" value="" style="endArrow=classic;html=1;strokeColor=#000000;fontSize=13;exitX=0;exitY=0.5;exitDx=0;exitDy=0;" parent="QKKG4YhLjccbSQniPl94-1" source="QKKG4YhLjccbSQniPl94-7" target="QKKG4YhLjccbSQniPl94-8" edge="1">
          <mxGeometry width="50" height="50" relative="1" as="geometry">
            <mxPoint x="450" y="383.0000000000001" as="sourcePoint" />
            <mxPoint x="530" y="383.0000000000001" as="targetPoint" />
          </mxGeometry>
        </mxCell>
        <mxCell id="QKKG4YhLjccbSQniPl94-16" value="" style="endArrow=classic;html=1;fontSize=13;exitX=0.5;exitY=0;exitDx=0;exitDy=0;fillColor=#008a00;" parent="QKKG4YhLjccbSQniPl94-1" source="QKKG4YhLjccbSQniPl94-8" target="QKKG4YhLjccbSQniPl94-2" edge="1">
          <mxGeometry width="50" height="50" relative="1" as="geometry">
            <mxPoint x="460" y="450" as="sourcePoint" />
            <mxPoint x="510" y="400" as="targetPoint" />
          </mxGeometry>
        </mxCell>
        <mxCell id="QKKG4YhLjccbSQniPl94-17" value="" style="endArrow=classic;html=1;fontSize=13;exitX=0;exitY=0.5;exitDx=0;exitDy=0;fillColor=#a20025;" parent="QKKG4YhLjccbSQniPl94-1" source="QKKG4YhLjccbSQniPl94-6" target="QKKG4YhLjccbSQniPl94-2" edge="1">
          <mxGeometry width="50" height="50" relative="1" as="geometry">
            <mxPoint x="250" y="470" as="sourcePoint" />
            <mxPoint x="250" y="410.0000000000001" as="targetPoint" />
            <Array as="points">
              <mxPoint x="230" y="240" />
            </Array>
          </mxGeometry>
        </mxCell>
        <mxCell id="QKKG4YhLjccbSQniPl94-18" value="" style="endArrow=classic;html=1;strokeColor=#000000;fontSize=13;exitX=0;exitY=0.75;exitDx=0;exitDy=0;entryX=0;entryY=0.25;entryDx=0;entryDy=0;" parent="QKKG4YhLjccbSQniPl94-1" source="QKKG4YhLjccbSQniPl94-2" target="QKKG4YhLjccbSQniPl94-2" edge="1">
          <mxGeometry width="50" height="50" relative="1" as="geometry">
            <mxPoint x="448" y="450" as="sourcePoint" />
            <mxPoint x="138" y="370" as="targetPoint" />
            <Array as="points">
              <mxPoint x="158" y="390" />
              <mxPoint x="158" y="370" />
            </Array>
          </mxGeometry>
        </mxCell>
        <mxCell id="QKKG4YhLjccbSQniPl94-19" value="Нет данных" style="text;html=1;align=center;verticalAlign=middle;resizable=0;points=[];autosize=1;fontSize=16;fontFamily=Computer Modern;" parent="QKKG4YhLjccbSQniPl94-1" vertex="1">
          <mxGeometry x="85" y="347" width="100" height="20" as="geometry" />
        </mxCell>
        <mxCell id="QKKG4YhLjccbSQniPl94-20" value="Есть данные" style="text;html=1;align=center;verticalAlign=middle;resizable=0;points=[];autosize=1;fontSize=16;fontFamily=Computer Modern;" parent="QKKG4YhLjccbSQniPl94-1" vertex="1">
          <mxGeometry x="280" y="357" width="100" height="20" as="geometry" />
        </mxCell>
        <mxCell id="QKKG4YhLjccbSQniPl94-22" value="Отправлено&lt;br&gt;RTS сообщение" style="text;html=1;align=center;verticalAlign=middle;resizable=0;points=[];autosize=1;fontSize=16;fontFamily=Computer Modern;" parent="QKKG4YhLjccbSQniPl94-1" vertex="1">
          <mxGeometry x="753" y="360" width="120" height="40" as="geometry" />
        </mxCell>
        <mxCell id="QKKG4YhLjccbSQniPl94-23" value="Пришло&lt;br&gt;CTS сообщение" style="text;html=1;align=center;verticalAlign=middle;resizable=0;points=[];autosize=1;fontSize=16;fontFamily=Computer Modern;" parent="QKKG4YhLjccbSQniPl94-1" vertex="1">
          <mxGeometry x="920" y="428" width="120" height="40" as="geometry" />
        </mxCell>
        <mxCell id="QKKG4YhLjccbSQniPl94-24" value="Успешная передача" style="text;html=1;align=center;verticalAlign=middle;resizable=0;points=[];autosize=1;fontSize=16;fontFamily=Computer Modern;" parent="QKKG4YhLjccbSQniPl94-1" vertex="1">
          <mxGeometry x="285" y="475" width="150" height="20" as="geometry" />
        </mxCell>
        <mxCell id="QKKG4YhLjccbSQniPl94-26" value="Максимальное количество попыток превышено" style="text;html=1;align=center;verticalAlign=middle;resizable=0;points=[];autosize=1;fontSize=16;fontFamily=Computer Modern;" parent="QKKG4YhLjccbSQniPl94-1" vertex="1">
          <mxGeometry x="605" y="220" width="340" height="20" as="geometry" />
        </mxCell>
        <mxCell id="QKKG4YhLjccbSQniPl94-28" value="Цикл закончен,&lt;br&gt;перейти в IDLE&amp;nbsp;" style="text;html=1;align=center;verticalAlign=middle;resizable=0;points=[];autosize=1;fontSize=16;fontFamily=Computer Modern;" parent="QKKG4YhLjccbSQniPl94-1" vertex="1">
          <mxGeometry x="112" y="405" width="130" height="40" as="geometry" />
        </mxCell>
        <mxCell id="uOPqNuqm2HrXPGvBYKWC-0" value="Цикл закончен, перейти в IDLE&amp;nbsp;" style="text;html=1;align=center;verticalAlign=middle;resizable=0;points=[];autosize=1;fontSize=16;fontFamily=Computer Modern;" parent="QKKG4YhLjccbSQniPl94-1" vertex="1">
          <mxGeometry x="205" y="220" width="230" height="20" as="geometry" />
        </mxCell>
        <mxCell id="uOPqNuqm2HrXPGvBYKWC-3" value="Канал свободен" style="text;html=1;align=center;verticalAlign=middle;resizable=0;points=[];autosize=1;fontSize=16;fontFamily=Computer Modern;" parent="QKKG4YhLjccbSQniPl94-1" vertex="1">
          <mxGeometry x="500" y="410" width="120" height="20" as="geometry" />
        </mxCell>
        <mxCell id="uOPqNuqm2HrXPGvBYKWC-6" value="WAIT" style="rounded=1;whiteSpace=wrap;html=1;fontSize=18;fontFamily=Computer Modern;" parent="QKKG4YhLjccbSQniPl94-1" vertex="1">
          <mxGeometry x="505" y="297" width="80" height="40" as="geometry" />
        </mxCell>
        <mxCell id="uOPqNuqm2HrXPGvBYKWC-7" value="" style="endArrow=classic;html=1;strokeColor=#000000;fontSize=13;exitX=0;exitY=0.5;exitDx=0;exitDy=0;entryX=0.75;entryY=0;entryDx=0;entryDy=0;" parent="QKKG4YhLjccbSQniPl94-1" source="uOPqNuqm2HrXPGvBYKWC-6" target="QKKG4YhLjccbSQniPl94-3" edge="1">
          <mxGeometry width="50" height="50" relative="1" as="geometry">
            <mxPoint x="457" y="410" as="sourcePoint" />
            <mxPoint x="710" y="410" as="targetPoint" />
            <Array as="points">
              <mxPoint x="490" y="317" />
              <mxPoint x="467" y="317" />
            </Array>
          </mxGeometry>
        </mxCell>
        <mxCell id="uOPqNuqm2HrXPGvBYKWC-8" value="" style="endArrow=classic;html=1;strokeColor=#000000;fontSize=13;exitX=1;exitY=0.5;exitDx=0;exitDy=0;entryX=1;entryY=0.5;entryDx=0;entryDy=0;" parent="QKKG4YhLjccbSQniPl94-1" source="QKKG4YhLjccbSQniPl94-3" target="uOPqNuqm2HrXPGvBYKWC-6" edge="1">
          <mxGeometry width="50" height="50" relative="1" as="geometry">
            <mxPoint x="500" y="370" as="sourcePoint" />
            <mxPoint x="753" y="370" as="targetPoint" />
            <Array as="points">
              <mxPoint x="520" y="380" />
              <mxPoint x="603" y="380" />
              <mxPoint x="630" y="380" />
              <mxPoint x="640" y="380" />
              <mxPoint x="640" y="317" />
            </Array>
          </mxGeometry>
        </mxCell>
        <mxCell id="uOPqNuqm2HrXPGvBYKWC-9" value="Канал занят" style="text;html=1;align=center;verticalAlign=middle;resizable=0;points=[];autosize=1;fontSize=16;fontFamily=Computer Modern;" parent="QKKG4YhLjccbSQniPl94-1" vertex="1">
          <mxGeometry x="500" y="360" width="100" height="20" as="geometry" />
        </mxCell>
        <mxCell id="uOPqNuqm2HrXPGvBYKWC-13" value="" style="edgeStyle=none;rounded=0;orthogonalLoop=1;jettySize=auto;html=1;" parent="QKKG4YhLjccbSQniPl94-1" source="uOPqNuqm2HrXPGvBYKWC-10" target="QKKG4YhLjccbSQniPl94-7" edge="1">
          <mxGeometry relative="1" as="geometry" />
        </mxCell>
        <mxCell id="uOPqNuqm2HrXPGvBYKWC-10" value="DATA" style="rounded=1;whiteSpace=wrap;html=1;fontSize=18;fontFamily=Computer Modern;" parent="QKKG4YhLjccbSQniPl94-1" vertex="1">
          <mxGeometry x="648" y="479" width="80" height="40" as="geometry" />
        </mxCell>
        <mxCell id="uOPqNuqm2HrXPGvBYKWC-12" value="" style="edgeStyle=none;rounded=0;orthogonalLoop=1;jettySize=auto;html=1;" parent="QKKG4YhLjccbSQniPl94-1" source="uOPqNuqm2HrXPGvBYKWC-11" target="uOPqNuqm2HrXPGvBYKWC-10" edge="1">
          <mxGeometry relative="1" as="geometry" />
        </mxCell>
        <mxCell id="uOPqNuqm2HrXPGvBYKWC-11" value="CTS" style="rounded=1;whiteSpace=wrap;html=1;fontSize=18;fontFamily=Computer Modern;" parent="QKKG4YhLjccbSQniPl94-1" vertex="1">
          <mxGeometry x="833" y="479" width="80" height="40" as="geometry" />
        </mxCell>
        <mxCell id="uOPqNuqm2HrXPGvBYKWC-14" value="Не пришло CTS сообщение (коллизия)" style="text;html=1;align=center;verticalAlign=middle;resizable=0;points=[];autosize=1;fontSize=16;fontFamily=Computer Modern;" parent="QKKG4YhLjccbSQniPl94-1" vertex="1">
          <mxGeometry x="540" y="270" width="280" height="20" as="geometry" />
        </mxCell>
        <mxCell id="uOPqNuqm2HrXPGvBYKWC-17" value="Конец&lt;br&gt;передачи" style="text;html=1;align=center;verticalAlign=middle;resizable=0;points=[];autosize=1;fontSize=16;fontFamily=Computer Modern;" parent="QKKG4YhLjccbSQniPl94-1" vertex="1">
          <mxGeometry x="544.5" y="479" width="80" height="40" as="geometry" />
        </mxCell>
        <mxCell id="uOPqNuqm2HrXPGvBYKWC-20" value="Начало &lt;br&gt;передачи" style="text;html=1;align=center;verticalAlign=middle;resizable=0;points=[];autosize=1;fontSize=16;fontFamily=Computer Modern;" parent="QKKG4YhLjccbSQniPl94-1" vertex="1">
          <mxGeometry x="750" y="475" width="80" height="40" as="geometry" />
        </mxCell>
      </root>
    </mxGraphModel>
  </diagram>
  <diagram id="A2zYDya4ujwW_uFjVdvL" name="Token passing protocol">
    <mxGraphModel dx="744" dy="422" grid="1" gridSize="10" guides="1" tooltips="1" connect="1" arrows="1" fold="1" page="1" pageScale="1" pageWidth="827" pageHeight="1169" math="0" shadow="0">
      <root>
        <mxCell id="-SkqOoZgIkJNCf_v72l5-0" />
        <mxCell id="-SkqOoZgIkJNCf_v72l5-1" parent="-SkqOoZgIkJNCf_v72l5-0" />
        <mxCell id="FjVADOLbGepzs-UtuCI9-0" value="&lt;font style=&quot;font-size: 20px&quot;&gt;Токен циркулирует&lt;br&gt;от узла к узлу&lt;/font&gt;" style="ellipse;whiteSpace=wrap;html=1;aspect=fixed;rounded=0;fillColor=#ffffff;" parent="-SkqOoZgIkJNCf_v72l5-1" vertex="1">
          <mxGeometry x="180" y="30" width="380" height="380" as="geometry" />
        </mxCell>
        <mxCell id="FjVADOLbGepzs-UtuCI9-1" value="Узел 1" style="ellipse;whiteSpace=wrap;html=1;rounded=0;fillColor=#ffffff;" parent="-SkqOoZgIkJNCf_v72l5-1" vertex="1">
          <mxGeometry x="130" y="190" width="100" height="60" as="geometry" />
        </mxCell>
        <mxCell id="FjVADOLbGepzs-UtuCI9-2" value="Узел 3" style="ellipse;whiteSpace=wrap;html=1;rounded=0;fillColor=#ffffff;" parent="-SkqOoZgIkJNCf_v72l5-1" vertex="1">
          <mxGeometry x="510" y="180" width="100" height="60" as="geometry" />
        </mxCell>
        <mxCell id="FjVADOLbGepzs-UtuCI9-3" value="Узел 2" style="ellipse;whiteSpace=wrap;html=1;rounded=0;fillColor=#ffffff;" parent="-SkqOoZgIkJNCf_v72l5-1" vertex="1">
          <mxGeometry x="330" y="13" width="100" height="60" as="geometry" />
        </mxCell>
        <mxCell id="FjVADOLbGepzs-UtuCI9-4" value="Узел 4" style="ellipse;whiteSpace=wrap;html=1;rounded=0;fillColor=#ffffff;" parent="-SkqOoZgIkJNCf_v72l5-1" vertex="1">
          <mxGeometry x="310" y="376" width="100" height="59" as="geometry" />
        </mxCell>
        <mxCell id="FjVADOLbGepzs-UtuCI9-6" value="Токен" style="shape=flexArrow;endArrow=classic;html=1;endWidth=13;endSize=5.32;" parent="-SkqOoZgIkJNCf_v72l5-1" edge="1">
          <mxGeometry x="-0.4" y="21" width="50" height="50" relative="1" as="geometry">
            <mxPoint x="170" y="120" as="sourcePoint" />
            <mxPoint x="220" y="70" as="targetPoint" />
            <mxPoint as="offset" />
          </mxGeometry>
        </mxCell>
      </root>
    </mxGraphModel>
  </diagram>
  <diagram id="abQThPLQ0UOMABx7JrXR" name="Page-7">
    <mxGraphModel dx="744" dy="1591" grid="0" gridSize="10" guides="1" tooltips="1" connect="1" arrows="1" fold="1" page="1" pageScale="1" pageWidth="827" pageHeight="1169" math="0" shadow="0">
      <root>
        <mxCell id="JpNNx9dd_CxV1eVUbMOp-0" />
        <mxCell id="JpNNx9dd_CxV1eVUbMOp-1" parent="JpNNx9dd_CxV1eVUbMOp-0" />
        <mxCell id="jH3QDwrWZy74SQL_0Y6E-0" value="0" style="ellipse;whiteSpace=wrap;html=1;" vertex="1" parent="JpNNx9dd_CxV1eVUbMOp-1">
          <mxGeometry x="90" y="-160" width="45" height="37" as="geometry" />
        </mxCell>
        <mxCell id="jH3QDwrWZy74SQL_0Y6E-1" value="1" style="ellipse;whiteSpace=wrap;html=1;" vertex="1" parent="JpNNx9dd_CxV1eVUbMOp-1">
          <mxGeometry x="320" y="-223" width="50" height="39" as="geometry" />
        </mxCell>
        <mxCell id="jH3QDwrWZy74SQL_0Y6E-2" value="2" style="ellipse;whiteSpace=wrap;html=1;" vertex="1" parent="JpNNx9dd_CxV1eVUbMOp-1">
          <mxGeometry x="205" y="-56" width="50" height="44" as="geometry" />
        </mxCell>
        <mxCell id="jH3QDwrWZy74SQL_0Y6E-9" value="" style="curved=1;endArrow=classic;html=1;rounded=0;edgeStyle=orthogonalEdgeStyle;entryX=0;entryY=0.5;entryDx=0;entryDy=0;" edge="1" parent="JpNNx9dd_CxV1eVUbMOp-1" target="jH3QDwrWZy74SQL_0Y6E-0">
          <mxGeometry width="50" height="50" relative="1" as="geometry">
            <mxPoint x="205" y="-36" as="sourcePoint" />
            <mxPoint x="87" y="-145" as="targetPoint" />
            <Array as="points">
              <mxPoint x="61" y="-36" />
              <mxPoint x="61" y="-141" />
            </Array>
          </mxGeometry>
        </mxCell>
        <mxCell id="jH3QDwrWZy74SQL_0Y6E-10" value="" style="curved=1;endArrow=classic;html=1;rounded=0;edgeStyle=orthogonalEdgeStyle;entryX=0.5;entryY=0;entryDx=0;entryDy=0;" edge="1" parent="JpNNx9dd_CxV1eVUbMOp-1" target="jH3QDwrWZy74SQL_0Y6E-1">
          <mxGeometry width="50" height="50" relative="1" as="geometry">
            <mxPoint x="108" y="-160" as="sourcePoint" />
            <mxPoint x="158" y="-210" as="targetPoint" />
            <Array as="points">
              <mxPoint x="108" y="-249" />
              <mxPoint x="345" y="-249" />
            </Array>
          </mxGeometry>
        </mxCell>
        <mxCell id="jH3QDwrWZy74SQL_0Y6E-11" value="" style="curved=1;endArrow=classic;html=1;rounded=0;edgeStyle=orthogonalEdgeStyle;entryX=1;entryY=0.5;entryDx=0;entryDy=0;" edge="1" parent="JpNNx9dd_CxV1eVUbMOp-1" target="jH3QDwrWZy74SQL_0Y6E-2">
          <mxGeometry width="50" height="50" relative="1" as="geometry">
            <mxPoint x="370" y="-200" as="sourcePoint" />
            <mxPoint x="420" y="-250" as="targetPoint" />
            <Array as="points">
              <mxPoint x="420" y="-200" />
              <mxPoint x="420" y="-34" />
            </Array>
          </mxGeometry>
        </mxCell>
        <mxCell id="jH3QDwrWZy74SQL_0Y6E-12" value="" style="curved=1;endArrow=classic;html=1;rounded=0;edgeStyle=orthogonalEdgeStyle;entryX=0.5;entryY=1;entryDx=0;entryDy=0;" edge="1" parent="JpNNx9dd_CxV1eVUbMOp-1" target="jH3QDwrWZy74SQL_0Y6E-0">
          <mxGeometry width="50" height="50" relative="1" as="geometry">
            <mxPoint x="345" y="-184" as="sourcePoint" />
            <mxPoint x="395" y="-234" as="targetPoint" />
            <Array as="points">
              <mxPoint x="345" y="-99" />
              <mxPoint x="113" y="-99" />
            </Array>
          </mxGeometry>
        </mxCell>
        <mxCell id="jH3QDwrWZy74SQL_0Y6E-13" value="A(t)" style="text;html=1;strokeColor=none;fillColor=none;align=center;verticalAlign=middle;whiteSpace=wrap;rounded=0;" vertex="1" parent="JpNNx9dd_CxV1eVUbMOp-1">
          <mxGeometry x="370" y="-115" width="60" height="30" as="geometry" />
        </mxCell>
        <mxCell id="jH3QDwrWZy74SQL_0Y6E-14" value="A(t)" style="text;html=1;strokeColor=none;fillColor=none;align=center;verticalAlign=middle;whiteSpace=wrap;rounded=0;" vertex="1" parent="JpNNx9dd_CxV1eVUbMOp-1">
          <mxGeometry x="96" y="-253" width="60" height="30" as="geometry" />
        </mxCell>
        <mxCell id="jH3QDwrWZy74SQL_0Y6E-16" value="B(t)" style="text;html=1;strokeColor=none;fillColor=none;align=center;verticalAlign=middle;whiteSpace=wrap;rounded=0;" vertex="1" parent="JpNNx9dd_CxV1eVUbMOp-1">
          <mxGeometry x="255" y="-136" width="60" height="30" as="geometry" />
        </mxCell>
        <mxCell id="jH3QDwrWZy74SQL_0Y6E-17" value="C(t)" style="text;html=1;strokeColor=none;fillColor=none;align=center;verticalAlign=middle;whiteSpace=wrap;rounded=0;" vertex="1" parent="JpNNx9dd_CxV1eVUbMOp-1">
          <mxGeometry x="90" y="-73" width="60" height="30" as="geometry" />
        </mxCell>
      </root>
    </mxGraphModel>
  </diagram>
</mxfile>
